<?xml version="1.0" encoding="UTF-8"?>
<!DOCTYPE svg PUBLIC "-//W3C//DTD SVG 1.1//EN" "http://www.w3.org/Graphics/SVG/1.1/DTD/svg11.dtd">
<svg xmlns="http://www.w3.org/2000/svg" version="1.1" width="1024px" height="1013px" style="shape-rendering:geometricPrecision; text-rendering:geometricPrecision; image-rendering:optimizeQuality; fill-rule:evenodd; clip-rule:evenodd" xmlns:xlink="http://www.w3.org/1999/xlink">
<g><path style="opacity:0.69" fill="#4c5456" d="M 676.5,-0.5 C 678.833,-0.5 681.167,-0.5 683.5,-0.5C 690.338,1.56115 697.005,4.22782 703.5,7.5C 706.981,22.6836 708.981,38.017 709.5,53.5C 708.5,54.5 707.5,55.5 706.5,56.5C 708.631,60.7875 711.131,64.7875 714,68.5C 721.376,55.6812 726.543,42.0145 729.5,27.5C 727.856,27.7135 726.356,27.3802 725,26.5C 724.503,24.1902 724.337,21.8568 724.5,19.5C 734.465,18.4708 743.132,21.1375 750.5,27.5C 751.474,29.7427 751.808,32.076 751.5,34.5C 748.753,34.1866 746.086,34.52 743.5,35.5C 741.215,37.5947 739.215,39.928 737.5,42.5C 728.677,61.6285 721.344,81.2952 715.5,101.5C 711.37,101.466 707.37,100.799 703.5,99.5C 701.291,81.2848 698.625,63.1181 695.5,45C 694.358,37.9601 692.691,31.1268 690.5,24.5C 683.679,40.5739 677.013,56.7406 670.5,73C 671.819,74.7542 673.485,76.2542 675.5,77.5C 676.652,80.1062 676.818,82.7728 676,85.5C 675.439,86.0219 674.772,86.3552 674,86.5C 671.022,85.0892 667.855,84.0892 664.5,83.5C 658.543,81.6253 653.043,78.9586 648,75.5C 647.313,73.4325 647.48,71.4325 648.5,69.5C 654.121,67.6759 659.121,68.6759 663.5,72.5C 666.494,68.6593 666.16,65.1593 662.5,62C 666.824,50.8491 671.491,39.8491 676.5,29C 677.883,23.5706 679.549,18.2373 681.5,13C 681.929,9.13977 680.262,7.30643 676.5,7.5C 676.5,4.83333 676.5,2.16667 676.5,-0.5 Z"/></g>
<g><path style="opacity:0.644" fill="#4c5456" d="M 319.5,51.5 C 318.167,51.5 317.5,52.1667 317.5,53.5C 315.833,53.5 314.167,53.5 312.5,53.5C 311.194,50.1661 310.194,46.6661 309.5,43C 304.416,35.2476 301.416,26.7476 300.5,17.5C 304.253,15.8608 308.253,15.1941 312.5,15.5C 316.272,26.5967 320.272,37.5967 324.5,48.5C 322.067,48.2729 320.401,49.2729 319.5,51.5 Z"/></g>
<g><path style="opacity:0.607" fill="#4c5456" d="M 317.5,53.5 C 318.833,53.5 319.5,52.8333 319.5,51.5C 321.764,50.7814 324.097,50.448 326.5,50.5C 332.114,65.0616 338.28,79.3949 345,93.5C 345.567,97.5341 346.734,101.367 348.5,105C 347.225,110.127 343.892,112.294 338.5,111.5C 331.756,100.024 327.089,87.6906 324.5,74.5C 328.796,74.9199 329.463,73.2532 326.5,69.5C 322.891,66.9828 319.391,64.3161 316,61.5C 315.288,58.5624 315.788,55.8957 317.5,53.5 Z"/></g>
<g><path style="opacity:0.751" fill="#4c5456" d="M 564.5,51.5 C 581.163,51.1412 586.663,58.8078 581,74.5C 572.902,81.1512 564.902,81.1512 557,74.5C 556.654,71.2061 555.821,68.0394 554.5,65C 555.739,62.2826 556.573,59.4492 557,56.5C 559.658,54.8031 562.158,53.1365 564.5,51.5 Z"/></g>
<g><path style="opacity:0.756" fill="#4c5456" d="M 444.5,53.5 C 460.391,50.3943 467.058,56.7276 464.5,72.5C 461.57,79.0903 456.57,81.5903 449.5,80C 446.629,79.8692 444.295,78.7025 442.5,76.5C 438.032,68.1742 438.698,60.5075 444.5,53.5 Z"/></g>
<g><path style="opacity:0.738" fill="#4c5456" d="M 650.5,183.5 C 647.681,189.994 643.014,194.994 636.5,198.5C 638.045,199.452 639.712,199.785 641.5,199.5C 641.62,201.734 641.287,203.901 640.5,206C 638.16,210.175 635.827,214.341 633.5,218.5C 632.167,219.167 630.833,219.833 629.5,220.5C 630.617,221.949 631.284,223.616 631.5,225.5C 629.94,231.853 627.607,237.853 624.5,243.5C 622.833,243.5 621.167,243.5 619.5,243.5C 618.551,241.263 617.884,238.929 617.5,236.5C 614.786,236.25 612.119,236.083 609.5,236C 613.931,241.42 617.931,247.087 621.5,253C 615.505,266 609.838,279.167 604.5,292.5C 603.167,294.167 601.833,295.833 600.5,297.5C 596.914,298.377 593.581,298.377 590.5,297.5C 591.934,299.22 592.767,301.22 593,303.5C 594.506,301.826 596.339,300.826 598.5,300.5C 598.589,303.709 598.256,306.875 597.5,310C 593.065,323.454 587.732,336.454 581.5,349C 580.841,351.462 580.507,353.962 580.5,356.5C 578.167,356.5 575.833,356.5 573.5,356.5C 573.5,358.833 573.5,361.167 573.5,363.5C 570.5,363.5 567.5,363.5 564.5,363.5C 564.5,365.167 564.5,366.833 564.5,368.5C 566.39,368.297 567.89,368.963 569,370.5C 570.394,379.44 568.227,387.44 562.5,394.5C 554.643,413.002 547.309,431.669 540.5,450.5C 544.722,453.648 549.055,456.648 553.5,459.5C 559.143,464.829 564.31,470.496 569,476.5C 570.333,473.918 571.5,471.251 572.5,468.5C 592.684,398.774 611.85,328.774 630,258.5C 631.356,257.62 632.856,257.286 634.5,257.5C 634.688,263.199 634.355,268.866 633.5,274.5C 630.449,283.127 627.782,291.794 625.5,300.5C 624.52,303.086 624.187,305.753 624.5,308.5C 629.664,311.912 635.331,314.579 641.5,316.5C 643.239,318.741 645.406,320.408 648,321.5C 649.274,324.159 650.774,326.659 652.5,329C 655.865,329.287 658.865,330.454 661.5,332.5C 679.628,346.824 694.795,363.824 707,383.5C 708.655,387.049 709.822,390.715 710.5,394.5C 709.325,394.281 708.325,394.614 707.5,395.5C 711.342,396.221 714.676,397.887 717.5,400.5C 720.413,405.651 722.746,410.984 724.5,416.5C 730.16,415.406 735.826,414.406 741.5,413.5C 741.52,415.143 740.853,416.476 739.5,417.5C 735.542,419.801 731.542,421.801 727.5,423.5C 742.326,457.853 747.659,493.853 743.5,531.5C 740.254,531.865 737.588,530.865 735.5,528.5C 735.835,494.158 730.335,460.825 719,428.5C 689.381,445.813 659.714,463.147 630,480.5C 620.359,485.869 610.526,490.869 600.5,495.5C 600.5,496.833 600.5,498.167 600.5,499.5C 605.303,499.808 609.303,501.808 612.5,505.5C 623.782,510.688 634.615,516.688 645,523.5C 672.362,537.765 699.529,552.432 726.5,567.5C 727.427,558.255 729.427,549.255 732.5,540.5C 733.807,535.848 736.807,533.514 741.5,533.5C 742.257,546.018 740.59,558.185 736.5,570C 736.645,571.226 736.978,572.393 737.5,573.5C 754.334,582.401 771.001,591.401 787.5,600.5C 788.525,596.573 789.192,592.573 789.5,588.5C 790.5,588.5 791.5,588.5 792.5,588.5C 795.258,570.089 798.258,551.756 801.5,533.5C 807.724,533.551 808.058,532.217 802.5,529.5C 801.833,514.167 801.167,498.833 800.5,483.5C 799.595,477.22 798.595,471.053 797.5,465C 797.263,461.559 797.929,458.393 799.5,455.5C 798.675,454.614 797.675,454.281 796.5,454.5C 793.126,446.276 791.46,437.609 791.5,428.5C 792.5,428.5 793.5,428.5 794.5,428.5C 792.382,425.573 791.382,422.24 791.5,418.5C 792.482,417.859 793.482,417.193 794.5,416.5C 799.721,418.508 802.721,422.342 803.5,428C 806.86,444.096 809.86,460.263 812.5,476.5C 813.833,498.167 813.833,519.833 812.5,541.5C 811.169,550.812 810.169,560.146 809.5,569.5C 807.712,569.215 806.045,569.548 804.5,570.5C 806.497,574.251 806.997,578.251 806,582.5C 804.416,589.831 802.249,596.998 799.5,604C 799.581,606.557 800.747,608.39 803,609.5C 813.841,577.86 819.675,545.36 820.5,512C 820.312,505.77 819.645,499.603 818.5,493.5C 818.928,490.588 819.595,487.755 820.5,485C 815.219,458.047 809.552,431.214 803.5,404.5C 806.325,404.081 808.491,405.081 810,407.5C 810.906,405.388 812.406,404.555 814.5,405C 815.597,409.494 817.431,413.661 820,417.5C 826.762,441.973 830.929,466.973 832.5,492.5C 831.022,492.238 829.689,492.571 828.5,493.5C 829.827,495.311 830.827,497.311 831.5,499.5C 831.833,504.5 832.167,509.5 832.5,514.5C 831.028,534.868 829.195,555.201 827,575.5C 823.37,589.456 819.87,603.456 816.5,617.5C 833.863,626.003 851.196,634.836 868.5,644C 869.047,644.925 869.713,645.758 870.5,646.5C 873.266,636.505 876.599,626.671 880.5,617C 895.896,564.317 899.562,510.817 891.5,456.5C 890.502,447.859 890.169,439.192 890.5,430.5C 893.448,430.223 896.281,430.556 899,431.5C 913.092,500.435 909.259,568.268 887.5,635C 885.163,640.176 882.83,645.343 880.5,650.5C 886.434,654.812 892.434,659.146 898.5,663.5C 908.901,635.579 917.234,607.079 923.5,578C 928.222,545.658 929.555,513.158 927.5,480.5C 925.304,459.707 922.638,439.041 919.5,418.5C 923.37,417.201 927.37,416.534 931.5,416.5C 950.068,513.295 939.234,606.295 899,695.5C 872.37,749.699 836.537,796.532 791.5,836C 778.68,845.714 765.68,855.214 752.5,864.5C 749.594,865.262 746.76,866.262 744,867.5C 740.816,866.804 739.316,864.804 739.5,861.5C 740.095,858.064 741.761,855.231 744.5,853C 752.263,847.97 759.93,842.803 767.5,837.5C 769.4,835.381 771.066,833.047 772.5,830.5C 774.465,829.708 776.465,829.041 778.5,828.5C 784.085,823.92 789.418,818.92 794.5,813.5C 795.736,812.643 797.069,811.977 798.5,811.5C 810.082,799.288 821.415,786.955 832.5,774.5C 846.575,755.242 860.909,736.075 875.5,717C 881.703,702.663 888.037,688.33 894.5,674C 895.287,671.901 895.62,669.734 895.5,667.5C 890.213,666.174 884.88,664.84 879.5,663.5C 878.5,663.833 877.5,664.167 876.5,664.5C 874.431,668.97 872.098,673.303 869.5,677.5C 868.954,679.135 868.62,680.801 868.5,682.5C 866.833,682.5 865.167,682.5 863.5,682.5C 863.665,686.182 863.499,689.848 863,693.5C 859.078,698.024 856.245,703.024 854.5,708.5C 852.833,708.5 851.167,708.5 849.5,708.5C 848.201,704.63 847.534,700.63 847.5,696.5C 849.288,696.785 850.955,696.452 852.5,695.5C 850.506,690.41 851.506,686.077 855.5,682.5C 855.725,677.856 857.392,673.856 860.5,670.5C 861.5,668 862.5,665.5 863.5,663C 863.167,662.167 862.833,661.333 862.5,660.5C 850.96,656.485 839.293,652.819 827.5,649.5C 827.5,647.833 827.5,646.167 827.5,644.5C 832.935,645.711 838.435,647.044 844,648.5C 845.167,648.167 846.333,647.833 847.5,647.5C 838.698,644.263 830.031,640.763 821.5,637C 820.167,635.333 820.167,633.667 821.5,632C 817.638,632.374 813.805,632.207 810,631.5C 808.681,630.681 807.515,629.681 806.5,628.5C 799.379,628.097 793.045,625.764 787.5,621.5C 766.366,614.914 745.699,606.914 725.5,597.5C 717.655,594.263 709.655,591.429 701.5,589C 699.163,585.827 696.829,582.66 694.5,579.5C 693.571,580.689 693.238,582.022 693.5,583.5C 677.482,579.027 661.982,573.027 647,565.5C 640.647,562.907 634.147,560.741 627.5,559C 624.485,556.461 621.151,554.627 617.5,553.5C 617.569,546.84 615.236,541.173 610.5,536.5C 609.154,538.013 607.654,539.347 606,540.5C 602.455,538.149 598.622,536.482 594.5,535.5C 592.69,533.377 591.357,531.043 590.5,528.5C 587.507,529.135 584.507,529.301 581.5,529C 578.945,522.713 575.279,517.213 570.5,512.5C 568.167,515.167 565.833,515.167 563.5,512.5C 561.746,488.356 549.413,472.689 526.5,465.5C 516.495,463.218 506.495,463.718 496.5,467C 489.976,469.756 483.976,473.256 478.5,477.5C 461.149,499.503 461.482,521.17 479.5,542.5C 486.457,547.806 493.791,552.472 501.5,556.5C 512.528,558.419 523.195,557.419 533.5,553.5C 534.554,553.68 535.554,554.013 536.5,554.5C 537.039,551.834 538.372,549.667 540.5,548C 543.666,546.443 547,545.61 550.5,545.5C 550.814,539.732 552.981,534.732 557,530.5C 557.49,529.207 557.657,527.873 557.5,526.5C 561.573,526.808 565.573,527.475 569.5,528.5C 569.666,532.846 569.499,537.179 569,541.5C 565.301,548.535 560.468,554.702 554.5,560C 551.408,561.572 548.408,563.406 545.5,565.5C 547.562,567.092 547.895,568.925 546.5,571C 543.331,571.978 540.497,571.478 538,569.5C 537.405,570.899 537.572,572.232 538.5,573.5C 541.544,574.515 544.544,575.515 547.5,576.5C 547.514,571.807 549.848,568.807 554.5,567.5C 557.875,568.64 560.875,570.307 563.5,572.5C 564.607,571.978 565.774,571.645 567,571.5C 570.93,572.277 574.763,573.277 578.5,574.5C 578.5,576.167 578.5,577.833 578.5,579.5C 573.734,579.402 569.067,578.736 564.5,577.5C 563.594,580.436 562.928,583.436 562.5,586.5C 560.42,585.956 558.42,585.122 556.5,584C 554.963,582.89 554.297,581.39 554.5,579.5C 552.179,579.771 550.179,579.104 548.5,577.5C 547.752,579.332 546.752,580.999 545.5,582.5C 546.833,583.5 548.167,584.5 549.5,585.5C 551.636,587.949 553.303,590.616 554.5,593.5C 558.091,593.312 561.424,594.145 564.5,596C 567.286,599.074 569.952,602.241 572.5,605.5C 573.328,610.132 573.828,614.798 574,619.5C 575.983,620.982 577.816,622.649 579.5,624.5C 583.468,639.361 587.801,654.028 592.5,668.5C 591.911,671.021 591.245,673.521 590.5,676C 593.519,679.548 593.019,682.381 589,684.5C 583.449,681.594 577.949,678.594 572.5,675.5C 561.989,655.494 550.656,635.828 538.5,616.5C 535.891,611.615 533.557,606.615 531.5,601.5C 530.169,599.173 528.502,597.173 526.5,595.5C 523.123,601.702 519.456,607.702 515.5,613.5C 510.711,623.078 505.878,632.744 501,642.5C 490.431,659.539 480.764,677.206 472,695.5C 467.22,704.224 462.054,712.724 456.5,721C 457.167,721.667 457.833,722.333 458.5,723C 473.64,726.528 488.974,728.695 504.5,729.5C 507.229,730.062 508.729,731.728 509,734.5C 509.49,733.207 509.657,731.873 509.5,730.5C 523.803,729.028 538.136,727.695 552.5,726.5C 567.173,723.298 581.507,718.965 595.5,713.5C 595.5,711.167 595.5,708.833 595.5,706.5C 597.167,706.5 598.833,706.5 600.5,706.5C 600.5,707.5 600.5,708.5 600.5,709.5C 605.435,709.684 609.768,708.184 613.5,705C 617.272,704.594 620.939,703.761 624.5,702.5C 625.752,700.999 626.752,699.332 627.5,697.5C 644.18,687.311 659.18,675.144 672.5,661C 673.793,660.51 675.127,660.343 676.5,660.5C 678.381,666.662 677.381,672.329 673.5,677.5C 671.167,679.167 669.167,681.167 667.5,683.5C 665.535,684.292 663.535,684.959 661.5,685.5C 660.146,689.591 657.479,692.258 653.5,693.5C 651.041,696.104 648.375,698.438 645.5,700.5C 640.475,703.419 635.141,705.419 629.5,706.5C 629.694,710.262 627.86,711.929 624,711.5C 621.95,711.309 620.117,710.642 618.5,709.5C 616.891,712.894 614.224,714.227 610.5,713.5C 610.5,715.833 610.5,718.167 610.5,720.5C 609.5,720.5 608.5,720.5 607.5,720.5C 609.645,725.224 610.645,730.224 610.5,735.5C 608.339,735.174 606.506,734.174 605,732.5C 603.428,729.408 601.594,726.408 599.5,723.5C 591.499,726.808 583.332,729.808 575,732.5C 534.536,742.9 493.869,742.9 453,732.5C 451.605,732.78 450.438,733.447 449.5,734.5C 444.314,744.196 438.981,753.862 433.5,763.5C 430.7,764.646 427.867,764.646 425,763.5C 421.227,761.697 417.394,760.03 413.5,758.5C 413.069,757.707 412.735,756.873 412.5,756C 419.479,736.887 427.145,718.053 435.5,699.5C 438.32,692.79 440.653,685.956 442.5,679C 458.49,642.18 473.49,605.014 487.5,567.5C 482.449,565.655 477.783,563.155 473.5,560C 469.988,555.989 466.321,552.155 462.5,548.5C 461.35,546.237 460.35,543.904 459.5,541.5C 455.73,551.513 452.396,561.679 449.5,572C 434.251,629.788 418.084,687.288 401,744.5C 400.092,746.439 398.592,747.439 396.5,747.5C 397.854,739.562 399.521,731.728 401.5,724C 402.486,720.368 403.819,716.868 405.5,713.5C 405.167,712.833 404.833,712.167 404.5,711.5C 398.897,708.602 393.23,705.768 387.5,703C 378.957,696.618 370.291,690.452 361.5,684.5C 347.2,670.913 334.533,655.913 323.5,639.5C 322.548,637.955 322.215,636.288 322.5,634.5C 320.857,634.52 319.524,633.853 318.5,632.5C 314.358,625.559 310.191,618.559 306,611.5C 305.342,608.715 304.509,606.049 303.5,603.5C 298.021,605.541 292.354,606.874 286.5,607.5C 286.5,605.833 286.5,604.167 286.5,602.5C 291.14,600.525 295.807,598.525 300.5,596.5C 290.957,574.753 285.291,551.919 283.5,528C 284.928,522.932 285.761,517.765 286,512.5C 286.44,510.924 287.273,509.59 288.5,508.5C 287.272,506.679 285.606,505.679 283.5,505.5C 283.581,496.391 284.581,487.391 286.5,478.5C 288.57,478.551 290.403,477.885 292,476.5C 292.95,477.022 293.784,477.689 294.5,478.5C 294.602,495.171 294.602,511.837 294.5,528.5C 296.312,545.485 299.645,562.152 304.5,578.5C 306.258,582.55 308.092,586.55 310,590.5C 320.517,584.307 331.017,578.14 341.5,572C 345.5,571.333 349.5,571.333 353.5,572C 354.662,572.827 355.829,573.66 357,574.5C 357.5,574.167 358,573.833 358.5,573.5C 355.113,570.477 354.78,567.143 357.5,563.5C 381.368,549.834 405.368,536.168 429.5,522.5C 413.027,514.241 397.027,505.241 381.5,495.5C 381.5,493.833 381.5,492.167 381.5,490.5C 382.5,490.5 383.5,490.5 384.5,490.5C 383.14,487.38 382.307,484.047 382,480.5C 381.474,484.599 380.641,488.599 379.5,492.5C 377.076,492.808 374.743,492.474 372.5,491.5C 369.981,489.49 367.148,488.157 364,487.5C 357.696,483.139 351.196,479.139 344.5,475.5C 344.167,474.833 343.833,474.167 343.5,473.5C 344.547,471.944 345.214,470.277 345.5,468.5C 341.846,467.599 338.179,466.599 334.5,465.5C 333.754,464.264 333.421,462.93 333.5,461.5C 331.5,461.5 329.5,461.5 327.5,461.5C 328.398,456.516 326.898,452.516 323,449.5C 318.034,451.164 313.034,452.831 308,454.5C 301.845,454.388 298.512,451.388 298,445.5C 296.582,447.363 294.749,447.863 292.5,447C 276.802,439.154 261.468,430.821 246.5,422C 244.564,421.187 242.564,420.687 240.5,420.5C 228.941,458.195 224.608,496.861 227.5,536.5C 229.698,550.162 231.698,563.829 233.5,577.5C 230.119,577.54 226.786,577.207 223.5,576.5C 223.627,573.755 222.46,571.755 220,570.5C 213.851,540.185 212.351,509.518 215.5,478.5C 216.59,477.273 217.924,476.44 219.5,476C 218.245,466.725 218.245,457.392 219.5,448C 223.102,437.83 226.102,427.497 228.5,417C 227.24,414.247 226.24,411.413 225.5,408.5C 224.167,408.5 222.833,408.5 221.5,408.5C 216.963,435.094 212.63,461.76 208.5,488.5C 208.167,494.833 207.833,501.167 207.5,507.5C 209.068,526.825 210.401,546.158 211.5,565.5C 208.751,565.726 206.084,565.393 203.5,564.5C 200.929,560.465 198.929,556.132 197.5,551.5C 198.4,549.761 199.067,547.928 199.5,546C 198.242,542.121 197.075,538.287 196,534.5C 192.66,495.789 196.494,457.956 207.5,421C 209.507,415.663 211.84,410.496 214.5,405.5C 210.042,402.917 205.709,400.084 201.5,397C 190.568,392.251 180.068,386.751 170,380.5C 165.73,378.111 161.23,376.444 156.5,375.5C 155.322,380.029 153.989,384.529 152.5,389C 148.891,389.174 145.558,388.174 142.5,386C 141.555,384.089 141.555,382.089 142.5,380C 143.833,376.667 145.167,373.333 146.5,370C 143.616,365.792 139.783,362.625 135,360.5C 134.51,359.207 134.343,357.873 134.5,356.5C 133.167,356.5 131.833,356.5 130.5,356.5C 130.5,355.5 130.5,354.5 130.5,353.5C 136.341,353.145 142.008,353.812 147.5,355.5C 147.5,357.167 147.5,358.833 147.5,360.5C 150.343,360.942 153.009,361.942 155.5,363.5C 155.833,363 156.167,362.5 156.5,362C 155.453,360.32 154.787,358.486 154.5,356.5C 155.791,350.31 157.458,344.144 159.5,338C 169.316,321.026 179.316,304.193 189.5,287.5C 190.246,286.264 190.579,284.93 190.5,283.5C 192.591,283.318 194.591,283.652 196.5,284.5C 197.946,291.215 197.279,297.715 194.5,304C 183.724,316.96 175.557,331.46 170,347.5C 169,348.5 168,349.5 167,350.5C 166.884,353.932 165.717,356.932 163.5,359.5C 163.977,360.478 164.643,361.311 165.5,362C 185.635,365.73 205.468,370.564 225,376.5C 231.034,360.087 239.368,345.087 250,331.5C 250.856,329.132 251.69,326.798 252.5,324.5C 257.5,324.167 259.833,326.5 259.5,331.5C 260.5,331.5 261.5,331.5 262.5,331.5C 262.662,333.527 262.495,335.527 262,337.5C 252.929,351.266 245.096,365.599 238.5,380.5C 240.167,380.5 241.833,380.5 243.5,380.5C 247.763,370.433 252.763,360.767 258.5,351.5C 261.094,349.302 264.094,348.302 267.5,348.5C 267.742,354.208 267.408,359.875 266.5,365.5C 261.959,372.131 258.292,379.131 255.5,386.5C 258.532,386.505 261.532,386.838 264.5,387.5C 280.199,392.061 295.865,396.727 311.5,401.5C 312.156,397.188 313.822,393.355 316.5,390C 320.152,389.501 323.818,389.335 327.5,389.5C 327.62,391.734 327.287,393.901 326.5,396C 324.065,398.208 322.398,400.874 321.5,404C 368.521,416.518 415.188,429.351 461.5,442.5C 448.746,398.685 436.413,354.685 424.5,310.5C 418.19,312.725 412.19,315.725 406.5,319.5C 405.558,319.392 404.725,319.059 404,318.5C 401.73,321.775 398.563,323.109 394.5,322.5C 394.5,324.167 394.5,325.833 394.5,327.5C 391.387,328.223 388.721,329.723 386.5,332C 384.888,332.72 383.388,332.554 382,331.5C 382.028,335.389 380.195,337.722 376.5,338.5C 373.792,337.959 371.126,337.292 368.5,336.5C 367.305,333.877 367.805,331.544 370,329.5C 372.322,327.888 374.822,326.555 377.5,325.5C 379.86,323.14 382.194,320.806 384.5,318.5C 389.202,316.16 393.869,313.827 398.5,311.5C 404.718,305.725 412.051,302.058 420.5,300.5C 418.667,295.013 417.667,289.346 417.5,283.5C 418.93,283.421 420.264,283.754 421.5,284.5C 423.831,288.495 426.165,292.495 428.5,296.5C 432.901,294.005 437.568,292.338 442.5,291.5C 442.759,295.24 442.426,298.906 441.5,302.5C 439.242,303.799 436.908,304.799 434.5,305.5C 437.274,311.849 440.274,318.183 443.5,324.5C 458.458,350.919 473.791,377.086 489.5,403C 493.254,409.673 496.587,416.507 499.5,423.5C 500.93,423.579 502.264,423.246 503.5,422.5C 526.313,380.93 548.98,339.264 571.5,297.5C 533.091,287.834 494.924,288.167 457,298.5C 456.228,298.355 455.561,298.022 455,297.5C 454.502,294.518 454.335,291.518 454.5,288.5C 456.857,288.663 459.19,288.497 461.5,288C 467.84,285.153 474.507,282.987 481.5,281.5C 484.362,282.513 487.195,283.513 490,284.5C 490.44,282.924 491.273,281.59 492.5,280.5C 520.228,278.223 547.562,280.557 574.5,287.5C 575.988,289.577 577.988,290.577 580.5,290.5C 580.263,286.278 580.596,282.111 581.5,278C 590.017,264.593 597.684,250.759 604.5,236.5C 587.94,232.466 571.274,228.799 554.5,225.5C 512.067,220.112 470.4,223.446 429.5,235.5C 429.274,232.751 429.607,230.084 430.5,227.5C 432.923,224.38 435.756,221.714 439,219.5C 444.951,219.381 450.451,217.881 455.5,215C 471.485,213.168 487.485,211.502 503.5,210C 533.161,209.509 562.328,212.676 591,219.5C 595.592,221.067 599.925,223.067 604,225.5C 606.77,224.675 609.437,224.341 612,224.5C 612.44,222.924 613.273,221.59 614.5,220.5C 609.818,219.732 605.151,218.899 600.5,218C 596.545,215.592 592.212,214.259 587.5,214C 587.043,213.586 586.709,213.086 586.5,212.5C 581.198,211.671 575.864,211.171 570.5,211C 567.085,209.204 563.418,208.038 559.5,207.5C 488.392,199.097 421.559,212.431 359,247.5C 354.042,250.061 348.876,250.727 343.5,249.5C 340.78,245.625 341.446,242.291 345.5,239.5C 349.521,237.104 353.354,234.437 357,231.5C 365.142,227.763 373.142,223.763 381,219.5C 386.005,217.598 391.171,216.265 396.5,215.5C 400.669,211.725 405.503,209.058 411,207.5C 456.241,194.326 502.408,189.659 549.5,193.5C 561.842,193.915 573.842,196.082 585.5,200C 586.648,201.649 587.981,203.149 589.5,204.5C 590.003,202.256 591.337,200.922 593.5,200.5C 601.231,203.994 609.231,206.327 617.5,207.5C 617.682,209.591 617.348,211.591 616.5,213.5C 617.325,214.386 618.325,214.719 619.5,214.5C 619.5,215.833 619.5,217.167 619.5,218.5C 621.527,218.662 623.527,218.495 625.5,218C 623.904,215.254 622.571,212.42 621.5,209.5C 622.964,202.645 626.297,196.978 631.5,192.5C 633.056,193.547 634.723,194.214 636.5,194.5C 636.5,193.167 636.5,191.833 636.5,190.5C 635.5,190.5 634.5,190.5 633.5,190.5C 635.032,184.73 637.032,179.063 639.5,173.5C 643.344,166.904 647.011,160.237 650.5,153.5C 629.274,146.593 607.774,140.593 586,135.5C 570.921,132.941 555.755,131.274 540.5,130.5C 540.5,126.5 540.5,122.5 540.5,118.5C 579.842,121.222 618.008,129.222 655,142.5C 657.082,142.085 658.582,140.918 659.5,139C 661.323,135.193 662.989,131.359 664.5,127.5C 665.675,127.719 666.675,127.386 667.5,126.5C 623.506,108.751 577.839,98.7508 530.5,96.5C 530.785,94.712 530.452,93.0453 529.5,91.5C 528.614,92.325 528.281,93.325 528.5,94.5C 513.851,95.4924 499.184,96.3257 484.5,97C 463.842,98.7824 443.176,101.282 422.5,104.5C 421.833,101.167 421.167,97.8333 420.5,94.5C 430.626,91.8098 440.959,90.1431 451.5,89.5C 451.281,90.675 451.614,91.675 452.5,92.5C 453.95,91.3446 454.95,89.8446 455.5,88C 558.245,75.9502 653.912,95.9502 742.5,148C 754.612,156.244 766.612,164.744 778.5,173.5C 797.377,189.537 815.543,206.537 833,224.5C 833.219,225.938 833.719,227.271 834.5,228.5C 840.231,233.228 845.231,238.561 849.5,244.5C 855.414,253.423 861.747,262.089 868.5,270.5C 870.451,274.968 871.451,279.635 871.5,284.5C 867.76,284.759 864.094,284.426 860.5,283.5C 855.912,278.951 852.578,273.617 850.5,267.5C 839.606,252.932 827.939,238.932 815.5,225.5C 807.167,217.167 798.833,208.833 790.5,200.5C 754.94,169.95 715.273,145.617 671.5,127.5C 671.513,134.719 670.846,142.052 669.5,149.5C 677.427,152.472 685.26,155.805 693,159.5C 721.229,174.793 747.729,192.293 772.5,212C 787.099,226.763 801.433,241.596 815.5,256.5C 824.196,267.173 832.196,278.173 839.5,289.5C 840.374,291.747 840.708,294.08 840.5,296.5C 838.633,296.955 836.8,297.622 835,298.5C 833.276,298.045 831.776,297.212 830.5,296C 817.453,278.614 803.287,262.114 788,246.5C 785.584,242.741 782.75,239.241 779.5,236C 768.67,227.333 758.336,218.166 748.5,208.5C 747.271,207.719 745.938,207.219 744.5,207C 736.576,200.054 728.243,193.721 719.5,188C 712.769,184.551 706.269,180.718 700,176.5C 689.581,172.387 679.914,167.054 671,160.5C 668.959,161.423 666.792,161.756 664.5,161.5C 658.751,181.456 652.751,201.289 646.5,221C 654.536,223.467 662.202,226.8 669.5,231C 678.686,237.009 688.019,242.842 697.5,248.5C 707.735,256.107 717.735,263.941 727.5,272C 731.84,275.143 734.173,279.309 734.5,284.5C 731.477,284.105 730.477,285.105 731.5,287.5C 733.819,288.987 735.985,290.654 738,292.5C 740.209,290.294 742.709,289.96 745.5,291.5C 752.281,298.736 759.281,305.736 766.5,312.5C 772.493,320.438 774.827,329.438 773.5,339.5C 769.105,339.124 766.105,336.79 764.5,332.5C 759.541,328.043 754.708,323.376 750,318.5C 747.722,313.611 745.722,308.611 744,303.5C 742.847,305.497 741.347,305.83 739.5,304.5C 713.794,275.969 683.627,253.302 649,236.5C 647.234,235.767 645.401,235.433 643.5,235.5C 643.5,237.167 643.5,238.833 643.5,240.5C 647.102,241.045 650.602,242.045 654,243.5C 660.944,248.038 668.111,252.205 675.5,256C 683.538,261.72 691.538,267.387 699.5,273C 705.943,277.94 711.943,283.44 717.5,289.5C 728.233,297.566 737.233,307.233 744.5,318.5C 747.796,321.96 751.296,325.294 755,328.5C 759.481,337.973 763.981,347.306 768.5,356.5C 769.822,356.33 770.989,356.663 772,357.5C 772.771,360.19 773.604,362.856 774.5,365.5C 780.498,370.898 782.998,377.565 782,385.5C 780.067,388.649 777.234,389.982 773.5,389.5C 773.714,385.809 772.381,382.809 769.5,380.5C 768.36,375.049 765.86,370.382 762,366.5C 759.023,361.181 756.023,355.848 753,350.5C 746.399,341.389 739.566,332.389 732.5,323.5C 730.668,320.757 729.668,317.757 729.5,314.5C 731.199,314.66 732.866,314.494 734.5,314C 733.151,313.228 732.318,312.061 732,310.5C 730.246,312.25 728.079,312.917 725.5,312.5C 725.657,311.127 725.49,309.793 725,308.5C 724.481,309.516 723.647,310.182 722.5,310.5C 713.22,303.722 704.387,296.388 696,288.5C 695.781,287.062 695.281,285.729 694.5,284.5C 690.986,282.393 687.319,280.56 683.5,279C 674.87,272.188 665.87,266.022 656.5,260.5C 650.75,257.097 644.75,254.43 638.5,252.5C 638.5,253.5 638.5,254.5 638.5,255.5C 637.5,255.5 636.5,255.5 635.5,255.5C 635.238,247.78 635.738,240.113 637,232.5C 640.17,221.309 643.67,210.142 647.5,199C 648.758,193.865 649.758,188.698 650.5,183.5 Z M 655.5,164.5 C 657.337,164.639 657.67,165.306 656.5,166.5C 655.702,166.043 655.369,165.376 655.5,164.5 Z M 653.5,173.5 C 653.215,171.712 653.548,170.045 654.5,168.5C 654.833,169.333 655.167,170.167 655.5,171C 655.316,172.376 654.649,173.209 653.5,173.5 Z M 652.5,178.5 C 652.923,180.781 652.256,182.448 650.5,183.5C 650.077,181.219 650.744,179.552 652.5,178.5 Z M 604.5,231.5 C 606.288,231.215 607.955,231.548 609.5,232.5C 607.704,233.141 606.204,234.141 605,235.5C 604.51,234.207 604.343,232.873 604.5,231.5 Z M 581.5,291.5 C 583.924,291.192 586.257,291.526 588.5,292.5C 587.333,292.833 586.167,293.167 585,293.5C 583.319,293.392 582.152,292.725 581.5,291.5 Z M 620.5,318.5 C 622.138,319.159 623.805,319.826 625.5,320.5C 631.1,324.117 636.433,327.951 641.5,332C 645.305,333.785 649.305,334.618 653.5,334.5C 653.664,337.748 654.664,340.748 656.5,343.5C 659.526,347.184 663.193,350.184 667.5,352.5C 671.856,358.495 676.856,363.828 682.5,368.5C 683.281,369.729 683.781,371.062 684,372.5C 689.667,379.167 695.333,385.833 701,392.5C 704.085,400.378 707.918,407.878 712.5,415C 713.233,416.766 713.567,418.599 713.5,420.5C 708.305,422.106 702.972,423.273 697.5,424C 658.744,435.269 620.077,446.769 581.5,458.5C 594.666,411.78 607.666,365.113 620.5,318.5 Z M 164.5,365.5 C 166.337,365.639 166.67,366.306 165.5,367.5C 164.702,367.043 164.369,366.376 164.5,365.5 Z M 178.5,370.5 C 176.712,370.785 175.045,370.452 173.5,369.5C 174.333,369.167 175.167,368.833 176,368.5C 177.376,368.684 178.209,369.351 178.5,370.5 Z M 178.5,370.5 C 203.33,376.737 227.997,383.737 252.5,391.5C 268.498,395.167 284.498,398.833 300.5,402.5C 302.046,403.684 303.713,404.684 305.5,405.5C 317.706,407.52 329.539,410.853 341,415.5C 387.008,427.957 432.841,440.624 478.5,453.5C 479.167,454.167 479.833,454.833 480.5,455.5C 470.667,461.993 463,470.327 457.5,480.5C 456.481,481.687 455.314,482.687 454,483.5C 426.164,472.097 398.331,460.431 370.5,448.5C 366.555,447.509 362.555,447.176 358.5,447.5C 358.5,446.5 358.5,445.5 358.5,444.5C 335.754,436.268 313.42,427.268 291.5,417.5C 287.878,416.341 284.211,416.175 280.5,417C 279.314,419.748 278.314,422.581 277.5,425.5C 275.132,423.777 272.466,423.11 269.5,423.5C 269.659,420.813 268.825,418.48 267,416.5C 263.579,415.314 260.746,413.314 258.5,410.5C 257.526,408.257 257.192,405.924 257.5,403.5C 252.303,401.934 247.136,400.268 242,398.5C 229.276,392.544 216.442,386.711 203.5,381C 196.385,378.787 189.385,376.287 182.5,373.5C 180.668,372.943 179.335,371.943 178.5,370.5 Z M 286.5,428.5 C 288.337,428.639 288.67,429.306 287.5,430.5C 286.702,430.043 286.369,429.376 286.5,428.5 Z M 305.5,440.5 C 308.37,440.248 310.703,441.248 312.5,443.5C 309.135,444.887 306.802,443.887 305.5,440.5 Z M 360.5,454.5 C 362.337,454.639 362.67,455.306 361.5,456.5C 360.702,456.043 360.369,455.376 360.5,454.5 Z M 379.5,468.5 C 383.527,468.26 384.861,469.926 383.5,473.5C 382.614,472.675 382.281,471.675 382.5,470.5C 380.821,470.715 379.821,470.048 379.5,468.5 Z M 574.5,478.5 C 576.337,478.639 576.67,479.306 575.5,480.5C 574.702,480.043 574.369,479.376 574.5,478.5 Z M 641.5,529.5 C 643.178,532.107 645.344,534.441 648,536.5C 648.688,537.332 648.521,537.998 647.5,538.5C 644.854,536.432 641.854,535.099 638.5,534.5C 640.278,533.274 641.278,531.607 641.5,529.5 Z M 444.5,560.5 C 445.693,560.97 446.36,561.97 446.5,563.5C 440.194,587.035 433.361,610.369 426,633.5C 420.285,656.247 414.452,678.914 408.5,701.5C 406.712,701.785 405.045,701.452 403.5,700.5C 374.951,682.282 350.618,659.615 330.5,632.5C 325.018,622.2 319.684,611.867 314.5,601.5C 317.777,599.388 321.277,597.722 325,596.5C 362.427,586.023 399.76,575.356 437,564.5C 439.967,563.667 442.467,562.334 444.5,560.5 Z M 324.5,632.5 C 326.337,632.639 326.67,633.306 325.5,634.5C 324.702,634.043 324.369,633.376 324.5,632.5 Z M 852.5,650.5 C 853.708,649.218 855.042,649.218 856.5,650.5C 855.3,651.292 853.967,651.292 852.5,650.5 Z M 466.5,651.5 C 468.337,651.639 468.67,652.306 467.5,653.5C 466.702,653.043 466.369,652.376 466.5,651.5 Z M 466.5,662.5 C 467.708,661.218 469.042,661.218 470.5,662.5C 469.3,663.292 467.967,663.292 466.5,662.5 Z M 691.5,747.5 C 689.663,747.361 689.33,746.694 690.5,745.5C 691.298,745.957 691.631,746.624 691.5,747.5 Z"/></g>
<g><path style="opacity:0.371" fill="#4c5456" d="M 403.5,94.5 C 405.167,94.5 406.833,94.5 408.5,94.5C 408.072,97.5641 407.406,100.564 406.5,103.5C 405.5,103.5 404.5,103.5 403.5,103.5C 403.5,104.5 403.5,105.5 403.5,106.5C 401.876,106.64 400.71,105.973 400,104.5C 398.246,106.25 396.079,106.917 393.5,106.5C 393.337,104.143 393.503,101.81 394,99.5C 397.552,98.2302 400.718,96.5635 403.5,94.5 Z"/></g>
<g><path style="opacity:0.633" fill="#4c5456" d="M 384.5,103.5 C 386.167,103.5 387.833,103.5 389.5,103.5C 389.813,106.572 389.146,109.405 387.5,112C 390.389,115.715 393.056,119.548 395.5,123.5C 398.862,127.681 403.195,129.347 408.5,128.5C 408.529,132.105 409.195,135.605 410.5,139C 410.264,142.735 408.264,144.568 404.5,144.5C 403.167,144.167 401.833,143.833 400.5,143.5C 395.947,139.403 391.614,135.07 387.5,130.5C 386.833,137.833 386.167,145.167 385.5,152.5C 384.784,153.311 383.95,153.978 383,154.5C 380.264,152.942 377.43,151.609 374.5,150.5C 368.44,144.943 362.94,138.943 358,132.5C 357.506,130.866 357.34,129.199 357.5,127.5C 360.14,127.447 362.64,126.78 365,125.5C 369.087,127.915 372.587,131.082 375.5,135C 378.114,135.505 379.447,134.338 379.5,131.5C 378.144,127.753 377.144,123.92 376.5,120C 374.259,117.091 371.259,115.925 367.5,116.5C 367.262,113.592 368.262,111.258 370.5,109.5C 375.073,106.835 379.74,104.835 384.5,103.5 Z"/></g>
<g><path style="opacity:0.505" fill="#4c5456" d="M 403.5,108.5 C 405.167,108.5 406.833,108.5 408.5,108.5C 408.5,114.167 408.5,119.833 408.5,125.5C 406.167,125.5 403.833,125.5 401.5,125.5C 401.145,119.659 401.812,113.992 403.5,108.5 Z"/></g>
<g><path style="opacity:0.678" fill="#4c5456" d="M 485.5,123.5 C 485.5,121.833 485.5,120.167 485.5,118.5C 494.967,117.587 504.467,116.921 514,116.5C 522.354,116.299 530.52,116.966 538.5,118.5C 538.5,121.833 538.5,125.167 538.5,128.5C 523.83,128.667 509.163,128.5 494.5,128C 491.254,126.884 488.254,125.384 485.5,123.5 Z"/></g>
<g><path style="opacity:0.41" fill="#4c5456" d="M 346.5,118.5 C 348.167,118.5 349.833,118.5 351.5,118.5C 351.5,121.5 351.5,124.5 351.5,127.5C 345.987,128.317 343.32,125.983 343.5,120.5C 345.179,120.715 346.179,120.048 346.5,118.5 Z"/></g>
<g><path style="opacity:0.691" fill="#4c5456" d="M 485.5,123.5 C 485.5,125.167 485.5,126.833 485.5,128.5C 470.919,131.644 456.252,133.977 441.5,135.5C 438.989,135.712 436.822,135.045 435,133.5C 434.503,130.854 434.336,128.187 434.5,125.5C 445.742,123.344 457.075,121.678 468.5,120.5C 474.422,120.459 480.089,121.459 485.5,123.5 Z"/></g>
<g><path style="opacity:0.604" fill="#4c5456" d="M 324.5,127.5 C 339.345,126.054 347.011,132.721 347.5,147.5C 350.381,149.809 351.714,152.809 351.5,156.5C 354.5,156.5 357.5,156.5 360.5,156.5C 360.5,159.167 360.5,161.833 360.5,164.5C 357.603,164.788 354.77,165.455 352,166.5C 350.284,166.252 348.784,165.585 347.5,164.5C 346.419,170.555 342.752,172.888 336.5,171.5C 336.192,169.076 336.526,166.743 337.5,164.5C 338.736,163.754 340.07,163.421 341.5,163.5C 340.08,159.001 339.08,154.334 338.5,149.5C 337.167,149.5 335.833,149.5 334.5,149.5C 334.475,146.04 333.808,142.706 332.5,139.5C 329.079,136.873 325.745,137.04 322.5,140C 319.772,142.724 317.439,145.724 315.5,149C 318.619,156.28 321.952,163.447 325.5,170.5C 327.868,168.777 330.534,168.11 333.5,168.5C 333.785,170.288 333.452,171.955 332.5,173.5C 325.917,179.197 318.251,182.53 309.5,183.5C 309.5,180.833 309.5,178.167 309.5,175.5C 310.5,175.5 311.5,175.5 312.5,175.5C 312.66,173.801 312.494,172.134 312,170.5C 308.877,163.578 306.044,156.578 303.5,149.5C 300.975,150.64 298.308,151.307 295.5,151.5C 294.97,147.207 295.97,143.373 298.5,140C 301.619,138.708 304.619,137.208 307.5,135.5C 309.044,135.79 310.377,136.456 311.5,137.5C 316.161,134.494 320.495,131.161 324.5,127.5 Z"/></g>
<g><path style="opacity:0.691" fill="#4c5456" d="M 477.5,137.5 C 481.434,137.021 485.101,137.688 488.5,139.5C 489.327,155.561 490.66,171.561 492.5,187.5C 487.901,187.8 483.401,187.467 479,186.5C 477.96,170.182 477.46,153.849 477.5,137.5 Z"/></g>
<g><path style="opacity:0.632" fill="#4c5456" d="M 533.5,137.5 C 537.5,137.5 541.5,137.5 545.5,137.5C 545.306,153.841 544.806,170.174 544,186.5C 539.599,187.467 535.099,187.8 530.5,187.5C 530.808,183.427 531.475,179.427 532.5,175.5C 533.5,175.5 534.5,175.5 535.5,175.5C 535.449,173.43 536.115,171.597 537.5,170C 534.94,166.338 533.274,162.338 532.5,158C 533.361,151.194 533.694,144.361 533.5,137.5 Z"/></g>
<g><path style="opacity:0.757" fill="#4c5456" d="M 779.5,139.5 C 783.514,139.334 787.514,139.501 791.5,140C 797.342,145.057 799.009,151.39 796.5,159C 792.636,165.555 786.969,167.722 779.5,165.5C 775.723,164.948 773.056,162.948 771.5,159.5C 768.561,150.271 771.228,143.604 779.5,139.5 Z"/></g>
<g><path style="opacity:0.69" fill="#4c5456" d="M 233.5,142.5 C 238.478,142.096 243.145,143.096 247.5,145.5C 248.727,146.59 249.56,147.924 250,149.5C 250.861,155.585 250.527,161.585 249,167.5C 246.016,170.1 242.516,171.1 238.5,170.5C 238.5,167.5 238.5,164.5 238.5,161.5C 234.5,161.5 230.5,161.5 226.5,161.5C 226.408,155.964 228.408,151.297 232.5,147.5C 233.452,145.955 233.785,144.288 233.5,142.5 Z"/></g>
<g><path style="opacity:0.682" fill="#4c5456" d="M 592.5,146.5 C 595.85,146.335 599.183,146.502 602.5,147C 603.624,147.839 604.291,149.006 604.5,150.5C 600.22,165.317 596.554,180.317 593.5,195.5C 589.78,195.436 586.114,194.936 582.5,194C 581.884,192.6 581.551,191.1 581.5,189.5C 584.528,174.885 588.194,160.552 592.5,146.5 Z"/></g>
<g><path style="opacity:0.6" fill="#4c5456" d="M 419.5,147.5 C 423.167,147.5 426.833,147.5 430.5,147.5C 435.408,163.137 439.074,179.137 441.5,195.5C 437.427,195.808 433.427,196.475 429.5,197.5C 429.318,195.409 429.652,193.409 430.5,191.5C 429.675,190.614 428.675,190.281 427.5,190.5C 426.544,185.908 425.878,181.241 425.5,176.5C 425.521,173.248 425.854,170.081 426.5,167C 424.831,165.331 422.831,164.498 420.5,164.5C 420.524,160.471 419.857,156.638 418.5,153C 418.581,151.076 418.914,149.243 419.5,147.5 Z M 432.5,188.5 C 435.797,188.329 436.131,188.995 433.5,190.5C 432.702,190.043 432.369,189.376 432.5,188.5 Z"/></g>
<g><path style="opacity:0.653" fill="#4c5456" d="M 281.5,151.5 C 283.591,151.318 285.591,151.652 287.5,152.5C 288.209,155.129 289.209,157.629 290.5,160C 282.192,168.013 273.192,175.347 263.5,182C 259.289,183.534 254.956,183.867 250.5,183C 249.506,181.671 248.506,180.338 247.5,179C 248.289,177.374 249.289,175.874 250.5,174.5C 260.857,166.802 271.19,159.135 281.5,151.5 Z"/></g>
<g><path style="opacity:0.279" fill="#4c5456" d="M 369.5,164.5 C 371.167,164.5 372.833,164.5 374.5,164.5C 374.5,167.5 374.5,170.5 374.5,173.5C 367.892,173.132 366.225,170.132 369.5,164.5 Z"/></g>
<g><path style="opacity:0.621" fill="#4c5456" d="M 367.5,178.5 C 370.916,177.894 373.582,178.894 375.5,181.5C 377.686,182.221 379.853,182.887 382,183.5C 383.496,185.411 384.829,187.411 386,189.5C 387.985,196.378 390.485,203.045 393.5,209.5C 393.291,210.086 392.957,210.586 392.5,211C 388.23,212.075 383.897,212.575 379.5,212.5C 375.49,201.144 371.49,189.811 367.5,178.5 Z"/></g>
<g><path style="opacity:0.62" fill="#4c5456" d="M 295.5,182.5 C 301.572,183.656 303.739,187.323 302,193.5C 294.946,198.203 288.112,203.203 281.5,208.5C 279.167,209.833 276.833,209.833 274.5,208.5C 273.502,206.335 272.502,204.168 271.5,202C 271.833,201.167 272.167,200.333 272.5,199.5C 280.224,193.757 287.891,188.09 295.5,182.5 Z"/></g>
<g><path style="opacity:0.641" fill="#4c5456" d="M 698.5,188.5 C 706.61,187.117 710.443,190.45 710,198.5C 703.705,209.358 697.039,220.025 690,230.5C 689.517,231.448 689.351,232.448 689.5,233.5C 685.566,233.979 681.899,233.312 678.5,231.5C 677.353,229.235 677.186,226.902 678,224.5C 679.011,223.663 680.178,223.33 681.5,223.5C 681.5,222.167 681.5,220.833 681.5,219.5C 682.5,219.5 683.5,219.5 684.5,219.5C 685.677,213.97 687.511,208.637 690,203.5C 694.73,199.638 697.563,194.638 698.5,188.5 Z"/></g>
<g><path style="opacity:0.657" fill="#4c5456" d="M 317.5,190.5 C 318.552,190.351 319.552,190.517 320.5,191C 325.347,196.156 329.847,201.656 334,207.5C 338.553,215.439 342.72,223.606 346.5,232C 346.22,233.395 345.553,234.562 344.5,235.5C 340.968,236.803 337.468,236.803 334,235.5C 327.837,224.152 321.004,213.152 313.5,202.5C 312.52,199.914 312.187,197.247 312.5,194.5C 315.069,194.262 316.735,192.929 317.5,190.5 Z"/></g>
<g><path style="opacity:0.407" fill="#4c5456" d="M 221.5,199.5 C 232.36,199.745 234.193,203.745 227,211.5C 224.662,209.494 222.328,207.494 220,205.5C 219.252,203.16 219.752,201.16 221.5,199.5 Z"/></g>
<g><path style="opacity:0.63" fill="#4c5456" d="M 261.5,207.5 C 264.308,207.693 266.975,208.36 269.5,209.5C 269.87,215.428 267.537,219.761 262.5,222.5C 249.5,236.167 236.167,249.5 222.5,262.5C 220.899,267.044 218.233,270.711 214.5,273.5C 213.043,276.749 210.877,279.415 208,281.5C 206.403,280.115 204.57,279.449 202.5,279.5C 201.492,267.189 206.826,259.189 218.5,255.5C 218.343,256.873 218.51,258.207 219,259.5C 219.66,256.953 219.493,254.453 218.5,252C 220.025,249.97 221.358,247.803 222.5,245.5C 235.271,232.393 248.271,219.727 261.5,207.5 Z"/></g>
<g><path style="opacity:0.608" fill="#4c5456" d="M 746.5,221.5 C 755.224,220.897 758.558,224.897 756.5,233.5C 755.5,233.5 754.5,233.5 753.5,233.5C 752.82,237.322 750.487,238.989 746.5,238.5C 746.216,241.632 745.383,244.632 744,247.5C 739.41,252.981 734.577,258.315 729.5,263.5C 724.022,265.488 720.689,263.654 719.5,258C 723.996,249.533 729.829,242.033 737,235.5C 740.75,231.246 743.917,226.579 746.5,221.5 Z"/></g>
<g><path style="opacity:0.648" fill="#4c5456" d="M 863.5,221.5 C 878.083,220.424 883.75,227.09 880.5,241.5C 878.305,242.769 876.139,242.769 874,241.5C 871.343,248.816 866.51,250.483 859.5,246.5C 854.875,242.234 853.208,236.901 854.5,230.5C 857.881,230.46 861.214,230.793 864.5,231.5C 864.5,229.833 864.5,228.167 864.5,226.5C 863.5,226.5 862.5,226.5 861.5,226.5C 861.831,224.678 862.498,223.011 863.5,221.5 Z"/></g>
<g><path style="opacity:0.685" fill="#4c5456" d="M 196.5,223.5 C 199.81,225.262 203.476,226.262 207.5,226.5C 207.682,228.591 207.348,230.591 206.5,232.5C 189.723,253.114 173.89,274.447 159,296.5C 151.056,310.653 143.556,324.986 136.5,339.5C 135.322,342.391 134.655,345.391 134.5,348.5C 132.5,348.5 130.5,348.5 128.5,348.5C 128.691,353.372 128.358,358.205 127.5,363C 124.148,369.972 121.481,377.139 119.5,384.5C 117.314,386.805 114.981,386.805 112.5,384.5C 111.614,385.325 111.281,386.325 111.5,387.5C 112.833,387.5 114.167,387.5 115.5,387.5C 110.805,412.865 106.305,438.198 102,463.5C 99.8794,486.113 99.0461,508.779 99.5,531.5C 95.4274,531.808 91.4274,532.475 87.5,533.5C 85.5974,484.536 91.0974,436.536 104,389.5C 105.846,385.538 107.346,381.538 108.5,377.5C 110.606,377.321 112.272,376.321 113.5,374.5C 111.348,371.048 111.014,367.381 112.5,363.5C 126.317,327.195 144.317,293.195 166.5,261.5C 176.4,248.848 186.4,236.182 196.5,223.5 Z"/></g>
<g><path style="opacity:0.602" fill="#4c5456" d="M 270.5,224.5 C 272.472,225.451 274.472,226.451 276.5,227.5C 284.224,234.226 290.891,241.892 296.5,250.5C 297.429,251.689 297.762,253.022 297.5,254.5C 299.5,254.833 301.5,255.167 303.5,255.5C 303.5,259.167 303.5,262.833 303.5,266.5C 299.563,266.793 295.73,266.46 292,265.5C 291.155,262.87 291.655,260.536 293.5,258.5C 282.235,257.577 277.235,251.577 278.5,240.5C 275.223,239.577 271.89,238.744 268.5,238C 266.773,235.096 266.107,231.93 266.5,228.5C 267.5,228.5 268.5,228.5 269.5,228.5C 269.433,227.041 269.766,225.708 270.5,224.5 Z"/></g>
<g><path style="opacity:0.675" fill="#4c5456" d="M 419.5,224.5 C 420.833,224.5 422.167,224.5 423.5,224.5C 424.882,228.938 424.549,233.271 422.5,237.5C 401.377,245.145 381.21,254.812 362,266.5C 352.275,268.948 349.108,265.614 352.5,256.5C 374.067,243.88 396.4,233.214 419.5,224.5 Z"/></g>
<g><path style="opacity:0.755" fill="#4c5456" d="M 151.5,226.5 C 155.555,226.176 159.555,226.509 163.5,227.5C 164.842,228.876 166.175,230.209 167.5,231.5C 168.833,237.167 168.833,242.833 167.5,248.5C 163.593,254.144 158.259,255.978 151.5,254C 148.352,251.888 145.519,249.388 143,246.5C 142.172,242.129 142.339,237.795 143.5,233.5C 144.354,232.052 145.354,230.719 146.5,229.5C 148.655,228.999 150.322,227.999 151.5,226.5 Z"/></g>
<g><path style="opacity:0.697" fill="#4c5456" d="M -0.5,362.5 C -0.5,358.833 -0.5,355.167 -0.5,351.5C 1.74552,345.98 3.74552,340.313 5.5,334.5C 8.5873,332.983 11.9206,332.316 15.5,332.5C 15.4921,335.545 15.1587,338.545 14.5,341.5C 20.342,343.046 26.342,343.879 32.5,344C 33.8586,345.204 34.8586,346.704 35.5,348.5C 36.8782,346.787 38.5448,345.453 40.5,344.5C 47.9792,346.723 55.6459,347.057 63.5,345.5C 56.6377,338.137 49.3043,331.304 41.5,325C 36.7233,323.323 31.8899,321.823 27,320.5C 23.0837,320.418 20.5837,322.251 19.5,326C 17.1902,326.497 14.8568,326.663 12.5,326.5C 12.1826,323.428 12.5159,320.428 13.5,317.5C 16.5168,311.041 19.0168,304.374 21,297.5C 23.7191,296.556 26.5525,296.223 29.5,296.5C 29.1924,298.924 29.5258,301.257 30.5,303.5C 33.0658,304.964 35.7325,306.131 38.5,307C 49.4751,308.042 60.4751,308.709 71.5,309C 74.0155,310.713 76.6821,310.88 79.5,309.5C 67.4503,297.633 54.2836,286.967 40,277.5C 39.1628,279.351 38.3295,281.184 37.5,283C 34.854,283.497 32.1873,283.664 29.5,283.5C 30.7323,274.465 33.399,265.798 37.5,257.5C 38.4682,256.511 39.6349,255.844 41,255.5C 42.8001,256.378 44.6334,257.045 46.5,257.5C 46.7711,259.821 46.1045,261.821 44.5,263.5C 49.1667,268.167 53.8333,272.833 58.5,277.5C 62.3841,279.374 65.7174,282.041 68.5,285.5C 73.2695,289.394 78.2695,293.061 83.5,296.5C 86.2729,299.063 88.2729,302.063 89.5,305.5C 90.5,305.5 91.5,305.5 92.5,305.5C 92.3359,308.187 92.5026,310.854 93,313.5C 93.4828,312.552 93.6495,311.552 93.5,310.5C 95.604,310.201 97.604,310.534 99.5,311.5C 100.728,313.321 102.394,314.321 104.5,314.5C 104.842,319.026 103.508,322.859 100.5,326C 95.5,326.667 90.5,326.667 85.5,326C 76.7988,325.163 68.1322,323.996 59.5,322.5C 58.5,322.833 57.5,323.167 56.5,323.5C 66.2124,332.378 76.379,340.712 87,348.5C 88.3064,349.912 89.1397,351.579 89.5,353.5C 88.704,356.669 87.3707,359.502 85.5,362C 78.5,362.667 71.5,362.667 64.5,362C 47.3724,360.197 30.2057,358.363 13,356.5C 11.5,356.833 10,357.167 8.5,357.5C 6.69535,361.302 3.69535,362.969 -0.5,362.5 Z M 92.5,314.5 C 93.339,315.641 94.0057,316.974 94.5,318.5C 93.5,319.833 92.5,319.833 91.5,318.5C 92.2458,317.264 92.5792,315.93 92.5,314.5 Z"/></g>
<g><path style="opacity:0.616" fill="#4c5456" d="M 319.5,259.5 C 321.833,259.5 324.167,259.5 326.5,259.5C 325.219,263.588 322.886,266.922 319.5,269.5C 319.529,271.029 320.196,272.196 321.5,273C 316.78,277.093 312.113,281.259 307.5,285.5C 301.959,287.567 297.959,286.067 295.5,281C 296.476,278.882 297.31,276.715 298,274.5C 304.821,268.82 311.987,263.82 319.5,259.5 Z"/></g>
<g><path style="opacity:0.638" fill="#4c5456" d="M 230.5,266.5 C 232.564,266.687 234.564,267.187 236.5,268C 242.275,272.272 247.608,277.105 252.5,282.5C 256.833,285.5 261.167,288.5 265.5,291.5C 266.833,292.833 266.833,294.167 265.5,295.5C 253.381,299.464 244.048,296.13 237.5,285.5C 236.271,284.719 234.938,284.219 233.5,284C 231.616,281.116 229.116,278.949 226,277.5C 224.754,272.664 226.254,268.997 230.5,266.5 Z"/></g>
<g><path style="opacity:0.636" fill="#4c5456" d="M 780.5,271.5 C 784.182,271.335 787.848,271.501 791.5,272C 792.78,274.132 792.78,276.298 791.5,278.5C 783.535,285.46 775.535,292.46 767.5,299.5C 759.615,302.272 755.782,299.605 756,291.5C 757.509,290.91 759.009,290.244 760.5,289.5C 765.504,281.344 772.171,275.344 780.5,271.5 Z"/></g>
<g><path style="opacity:0.605" fill="#4c5456" d="M 324.5,276.5 C 326.167,276.5 327.833,276.5 329.5,276.5C 329.771,278.821 329.104,280.821 327.5,282.5C 328.328,283.415 329.328,284.081 330.5,284.5C 331.833,285.833 331.833,287.167 330.5,288.5C 325.541,293.638 320.208,298.305 314.5,302.5C 310.273,299.63 308.773,295.63 310,290.5C 314.426,285.238 319.259,280.571 324.5,276.5 Z"/></g>
<g><path style="opacity:0.513" fill="#4c5456" d="M 285.5,286.5 C 288.308,286.693 290.975,287.36 293.5,288.5C 293.771,290.821 293.104,292.821 291.5,294.5C 293.104,296.179 293.771,298.179 293.5,300.5C 288.778,300.152 284.111,299.485 279.5,298.5C 279.338,296.473 279.505,294.473 280,292.5C 282.403,290.935 284.236,288.935 285.5,286.5 Z"/></g>
<g><path style="opacity:0.67" fill="#4c5456" d="M 1000.5,296.5 C 1002.92,296.192 1005.26,296.526 1007.5,297.5C 1008.43,301.094 1008.76,304.76 1008.5,308.5C 991.947,316.191 974.947,322.858 957.5,328.5C 946.817,334.562 935.651,339.562 924,343.5C 920.689,345.119 917.689,344.786 915,342.5C 914.502,339.183 914.335,335.85 914.5,332.5C 916.696,332.41 918.863,332.077 921,331.5C 926.427,328.183 932.26,325.85 938.5,324.5C 941.134,325.436 943.801,326.436 946.5,327.5C 948.409,326.652 950.409,326.318 952.5,326.5C 952.044,322.889 952.711,319.556 954.5,316.5C 970.22,310.297 985.553,303.63 1000.5,296.5 Z"/></g>
<g><path style="opacity:0.635" fill="#4c5456" d="M 878.5,300.5 C 886.496,300.926 891.496,305.092 893.5,313C 892.923,315.137 892.59,317.304 892.5,319.5C 893.552,319.351 894.552,319.517 895.5,320C 902.109,326.789 904.109,334.956 901.5,344.5C 898.631,346.873 895.631,349.039 892.5,351C 886.825,353.172 881.158,355.339 875.5,357.5C 873.711,360.556 873.044,363.889 873.5,367.5C 869.394,367.575 866.394,365.742 864.5,362C 861.618,356.135 859.951,349.969 859.5,343.5C 861.833,343.5 864.167,343.5 866.5,343.5C 866.679,345.606 867.679,347.272 869.5,348.5C 873.004,346.498 876.671,344.831 880.5,343.5C 886.397,341.104 890.397,336.937 892.5,331C 889.681,327.014 886.348,323.514 882.5,320.5C 875.823,324.341 868.823,327.341 861.5,329.5C 861.5,332.833 861.5,336.167 861.5,339.5C 857.683,340.018 854.683,338.685 852.5,335.5C 849.244,328.865 847.577,321.865 847.5,314.5C 851.931,313.53 854.265,315.197 854.5,319.5C 863.659,316.871 872.326,313.037 880.5,308C 878.709,305.894 878.042,303.394 878.5,300.5 Z"/></g>
<g><path style="opacity:0.653" fill="#4c5456" d="M 822.5,308.5 C 826.861,308.067 830.195,309.734 832.5,313.5C 833.52,315.432 833.687,317.432 833,319.5C 820.552,327.254 808.052,335.088 795.5,343C 788.576,342.204 786.243,338.371 788.5,331.5C 797.406,325.742 806.406,320.242 815.5,315C 818.32,313.274 820.654,311.107 822.5,308.5 Z"/></g>
<g><path style="opacity:0.656" fill="#4c5456" d="M 196.5,312.5 C 202.072,315.371 207.738,318.204 213.5,321C 221.827,326.276 230.161,331.442 238.5,336.5C 238.302,340.748 237.302,344.748 235.5,348.5C 233.712,348.785 232.045,348.452 230.5,347.5C 218.442,339.791 206.109,332.458 193.5,325.5C 192.137,320.618 193.137,316.285 196.5,312.5 Z"/></g>
<g><path style="opacity:0.494" fill="#4c5456" d="M 779.5,336.5 C 781.143,336.48 782.476,337.147 783.5,338.5C 787.843,345.856 792.176,353.19 796.5,360.5C 797.713,364.838 797.713,369.171 796.5,373.5C 794.694,374.859 793.194,374.525 792,372.5C 791.667,370.5 791.333,368.5 791,366.5C 789.989,367.337 788.822,367.67 787.5,367.5C 787.824,363.445 787.491,359.445 786.5,355.5C 783.579,356.407 780.579,356.74 777.5,356.5C 778.602,349.887 779.268,343.22 779.5,336.5 Z"/></g>
<g><path style="opacity:0.526" fill="#4c5456" d="M 355.5,341.5 C 357.167,341.5 358.833,341.5 360.5,341.5C 360.955,343.367 361.622,345.2 362.5,347C 360.627,354.016 356.627,359.35 350.5,363C 349.207,363.49 347.873,363.657 346.5,363.5C 346.98,366.685 346.314,369.519 344.5,372C 341.607,372.273 338.94,373.107 336.5,374.5C 335.558,374.392 334.725,374.059 334,373.5C 331.697,365.137 334.863,361.304 343.5,362C 341.75,360.246 341.083,358.079 341.5,355.5C 343.929,355.116 346.263,354.449 348.5,353.5C 348.215,351.712 348.548,350.045 349.5,348.5C 351.575,346.103 353.575,343.769 355.5,341.5 Z"/></g>
<g><path style="opacity:0.621" fill="#4c5456" d="M 894.5,358.5 C 899.544,358.173 904.544,358.506 909.5,359.5C 911.746,361.763 914.413,363.096 917.5,363.5C 920.319,369.049 922.319,374.882 923.5,381C 922.71,387.048 920.376,392.382 916.5,397C 913.104,399.036 909.938,398.869 907,396.5C 903.235,388.606 899.735,380.606 896.5,372.5C 894.055,374.278 891.389,375.611 888.5,376.5C 886.723,379.445 885.056,382.445 883.5,385.5C 887.505,390.504 891.838,395.17 896.5,399.5C 897.452,401.045 897.785,402.712 897.5,404.5C 879.935,403.492 872.935,394.325 876.5,377C 880.426,368.577 886.426,362.41 894.5,358.5 Z M 904.5,368.5 C 909.453,370.473 912.786,373.973 914.5,379C 913.287,380.63 912.454,382.464 912,384.5C 909.05,379.336 906.55,374.002 904.5,368.5 Z"/></g>
<g><path style="opacity:0.668" fill="#4c5456" d="M 849.5,360.5 C 852.167,360.5 854.833,360.5 857.5,360.5C 858.525,364.427 859.192,368.427 859.5,372.5C 855.482,372.757 851.649,373.757 848,375.5C 840.368,379.398 832.535,382.898 824.5,386C 820.914,387.108 817.247,387.608 813.5,387.5C 812.124,384.342 811.458,381.009 811.5,377.5C 817.91,374.864 824.243,371.864 830.5,368.5C 835.993,366.037 841.659,364.037 847.5,362.5C 848.713,362.253 849.38,361.586 849.5,360.5 Z"/></g>
<g><path style="opacity:0.288" fill="#4c5456" d="M 801.5,379.5 C 807.852,380.902 810.186,384.902 808.5,391.5C 806.833,391.5 805.167,391.5 803.5,391.5C 803.799,389.396 803.466,387.396 802.5,385.5C 800.423,386.988 799.423,388.988 799.5,391.5C 797.833,391.5 796.167,391.5 794.5,391.5C 794.5,388.5 794.5,385.5 794.5,382.5C 796.833,382.5 799.167,382.5 801.5,382.5C 801.5,381.5 801.5,380.5 801.5,379.5 Z"/></g>
<g><path style="opacity:0.526" fill="#4c5456" d="M 791.5,418.5 C 788.453,419.145 786.287,418.145 785,415.5C 783.709,410.745 782.043,406.078 780,401.5C 779.333,398.167 779.333,394.833 780,391.5C 781.936,388.187 784.77,387.021 788.5,388C 791.061,393.319 793.061,398.819 794.5,404.5C 792.712,404.215 791.045,404.548 789.5,405.5C 791.346,409.582 792.013,413.915 791.5,418.5 Z"/></g>
<g><path style="opacity:0.674" fill="#4c5456" d="M 139.5,411.5 C 140.5,411.5 141.5,411.5 142.5,411.5C 142.276,425.405 140.276,439.072 136.5,452.5C 135.502,459.472 134.835,466.472 134.5,473.5C 132.5,473.5 130.5,473.5 128.5,473.5C 127.997,478.172 127.831,482.839 128,487.5C 129.356,488.38 130.856,488.714 132.5,488.5C 133.073,495.383 132.407,502.049 130.5,508.5C 133.188,535.124 136.188,561.79 139.5,588.5C 136.193,589.051 132.86,589.384 129.5,589.5C 117.701,533.989 118.035,478.489 130.5,423C 132.317,418.041 135.317,414.208 139.5,411.5 Z"/></g>
<g><path style="opacity:0.636" fill="#4c5456" d="M 868.5,415.5 C 871.167,415.5 873.833,415.5 876.5,415.5C 876.5,419.5 876.5,423.5 876.5,427.5C 872.926,426.429 870.426,424.096 869,420.5C 869.083,423.119 869.25,425.786 869.5,428.5C 856.068,432.532 842.402,435.532 828.5,437.5C 828.605,433.452 828.272,429.452 827.5,425.5C 841.26,422.416 854.927,419.083 868.5,415.5 Z"/></g>
<g><path style="opacity:0.646" fill="#4c5456" d="M 151.5,420.5 C 166.87,423.223 182.203,426.223 197.5,429.5C 198.585,430.784 199.252,432.284 199.5,434C 198.455,436.77 197.788,439.603 197.5,442.5C 192.942,443.364 189.942,441.697 188.5,437.5C 186.377,438.694 184.043,439.36 181.5,439.5C 170.897,436.706 160.23,434.373 149.5,432.5C 149.151,428.258 149.817,424.258 151.5,420.5 Z"/></g>
<g><path style="opacity:0.763" fill="#4c5456" d="M 949.5,435.5 C 955.537,435.171 961.537,435.504 967.5,436.5C 972.777,442.438 973.777,449.104 970.5,456.5C 964.565,461.161 957.899,462.494 950.5,460.5C 941.612,452.541 941.279,444.208 949.5,435.5 Z"/></g>
<g><path style="opacity:0.763" fill="#4c5456" d="M 57.5,440.5 C 62.8437,440.334 68.1771,440.501 73.5,441C 75.7883,441.946 77.955,443.113 80,444.5C 85.9576,462.71 79.4576,470.376 60.5,467.5C 56.4977,464.498 54.8311,460.498 55.5,455.5C 55.0857,451.69 56.0857,448.356 58.5,445.5C 56.5764,444.035 56.2431,442.368 57.5,440.5 Z"/></g>
<g><path style="opacity:0.588" fill="#4c5456" d="M 288.5,458.5 C 291.881,458.46 295.214,458.793 298.5,459.5C 298.431,464.854 298.098,470.187 297.5,475.5C 293.833,475.5 290.167,475.5 286.5,475.5C 287.024,469.813 287.69,464.146 288.5,458.5 Z"/></g>
<g><path style="opacity:0.604" fill="#4c5456" d="M 868.5,471.5 C 870.821,471.229 872.821,471.896 874.5,473.5C 876.944,470.929 879.444,470.929 882,473.5C 883.393,472.385 884.893,471.885 886.5,472C 887.46,475.73 887.793,479.563 887.5,483.5C 879.225,483.158 871.225,484.492 863.5,487.5C 859.106,486.407 854.772,485.074 850.5,483.5C 849.571,484.689 849.238,486.022 849.5,487.5C 845.5,487.5 841.5,487.5 837.5,487.5C 837.5,483.5 837.5,479.5 837.5,475.5C 843.206,475.829 848.872,475.495 854.5,474.5C 859.571,474.128 864.238,473.128 868.5,471.5 Z"/></g>
<g><path style="opacity:0.61" fill="#4c5456" d="M 141.5,476.5 C 146.526,477.007 151.526,477.674 156.5,478.5C 156.5,479.833 156.5,481.167 156.5,482.5C 157.5,482.5 158.5,482.5 159.5,482.5C 159.5,481.167 159.5,479.833 159.5,478.5C 169.751,480.104 180.084,480.77 190.5,480.5C 190.5,484.5 190.5,488.5 190.5,492.5C 174.006,492.74 157.673,492.073 141.5,490.5C 141.5,485.833 141.5,481.167 141.5,476.5 Z"/></g>
<g><path style="opacity:0.675" fill="#4c5456" d="M 837.5,526.5 C 846.149,526.258 854.483,527.592 862.5,530.5C 864.285,529.337 866.285,528.67 868.5,528.5C 874.75,530.012 881.083,530.679 887.5,530.5C 887.5,534.167 887.5,537.833 887.5,541.5C 870.838,540.983 854.171,540.65 837.5,540.5C 837.5,535.833 837.5,531.167 837.5,526.5 Z"/></g>
<g><path style="opacity:0.696" fill="#4c5456" d="M 180.5,531.5 C 183.833,531.5 187.167,531.5 190.5,531.5C 190.5,536.167 190.5,540.833 190.5,545.5C 174.169,546.22 157.836,546.886 141.5,547.5C 141.207,543.563 141.54,539.73 142.5,536C 155.571,535.461 168.237,533.961 180.5,531.5 Z"/></g>
<g><path style="opacity:0.695" fill="#4c5456" d="M 87.5,542.5 C 91.836,543.15 96.1694,543.483 100.5,543.5C 102.289,560.974 104.956,578.307 108.5,595.5C 108.167,597.167 107.833,598.833 107.5,600.5C 104.144,602.649 100.478,603.649 96.5,603.5C 93.3361,583.226 90.3361,562.893 87.5,542.5 Z"/></g>
<g><path style="opacity:0.76" fill="#4c5456" d="M 959.5,550.5 C 964.239,550.827 968.239,552.66 971.5,556C 976.215,574.618 969.215,581.618 950.5,577C 948.824,575.823 947.491,574.323 946.5,572.5C 945.167,567.5 945.167,562.5 946.5,557.5C 947.287,556.758 947.953,555.925 948.5,555C 952.38,553.56 956.047,552.06 959.5,550.5 Z"/></g>
<g><path style="opacity:0.695" fill="#4c5456" d="M 65.5,557.5 C 77.0344,556.263 82.7011,561.43 82.5,573C 82.0779,576.586 81.4112,580.086 80.5,583.5C 73.1911,585.134 66.0244,584.801 59,582.5C 54.7448,575.25 54.9114,568.084 59.5,561C 62.1525,560.647 64.1525,559.48 65.5,557.5 Z M 67.5,578.5 C 69.6282,577.371 71.9615,577.204 74.5,578C 73.2298,578.9 72.2298,580.066 71.5,581.5C 70.4305,580.09 69.0972,579.09 67.5,578.5 Z"/></g>
<g><path style="opacity:0.575" fill="#4c5456" d="M 202.5,572.5 C 206.111,572.044 209.444,572.711 212.5,574.5C 214.963,578.856 216.297,583.522 216.5,588.5C 215.5,588.5 214.5,588.5 213.5,588.5C 213.5,590.833 213.5,593.167 213.5,595.5C 215.39,595.297 216.89,595.963 218,597.5C 219.457,601.741 219.791,606.074 219,610.5C 217.195,613.039 214.695,614.039 211.5,613.5C 208.733,603.963 206.067,594.296 203.5,584.5C 202.509,580.555 202.176,576.555 202.5,572.5 Z"/></g>
<g><path style="opacity:0.588" fill="#4c5456" d="M 832.5,577.5 C 837.364,578.9 842.364,579.567 847.5,579.5C 847.703,581.39 847.037,582.89 845.5,584C 847.169,585.669 849.169,586.502 851.5,586.5C 852.045,590.734 850.211,593.068 846,593.5C 840.23,591.765 834.396,590.432 828.5,589.5C 828.687,585.044 830.02,581.044 832.5,577.5 Z"/></g>
<g><path style="opacity:0.511" fill="#4c5456" d="M 593.5,581.5 C 602.527,582.338 611.527,583.504 620.5,585C 645.471,592.439 670.471,599.773 695.5,607C 711.53,610.288 727.197,614.955 742.5,621C 743.38,622.356 743.714,623.856 743.5,625.5C 734.082,623.917 724.748,621.917 715.5,619.5C 715.332,622.757 714.332,625.757 712.5,628.5C 708.27,634.613 704.27,640.947 700.5,647.5C 699.167,648.5 697.833,649.5 696.5,650.5C 692.5,655.833 688.5,661.167 684.5,666.5C 683.277,667.614 681.944,667.781 680.5,667C 679.628,664.319 678.628,661.653 677.5,659C 677.833,658.167 678.167,657.333 678.5,656.5C 684.739,647.963 691.072,639.63 697.5,631.5C 700.26,626.114 702.926,620.78 705.5,615.5C 668.697,606.137 632.031,596.137 595.5,585.5C 594.147,584.476 593.48,583.143 593.5,581.5 Z"/></g>
<g><path style="opacity:0.667" fill="#4c5456" d="M 189.5,583.5 C 192.833,583.5 196.167,583.5 199.5,583.5C 199.15,587.054 199.816,590.388 201.5,593.5C 201.291,594.086 200.957,594.586 200.5,595C 196.338,595.541 192.172,596.041 188,596.5C 175.89,599.877 163.723,602.877 151.5,605.5C 151.192,601.427 150.525,597.427 149.5,593.5C 163.02,590.624 176.353,587.29 189.5,583.5 Z"/></g>
<g><path style="opacity:0.649" fill="#4c5456" d="M 854.5,583.5 C 862.102,583.323 869.436,584.656 876.5,587.5C 877.617,588.949 878.284,590.616 878.5,592.5C 877.809,595.198 877.142,597.865 876.5,600.5C 869.948,598.629 863.281,597.295 856.5,596.5C 854.938,592.348 854.272,588.015 854.5,583.5 Z"/></g>
<g><path style="opacity:0.612" fill="#4c5456" d="M 101.5,617.5 C 104.856,617.15 107.856,617.983 110.5,620C 123.833,620.333 137.167,620.667 150.5,621C 151.46,624.73 151.793,628.563 151.5,632.5C 149.071,632.884 146.737,633.551 144.5,634.5C 144.5,636.167 144.5,637.833 144.5,639.5C 141.537,639.953 139.204,641.453 137.5,644C 144.826,644.5 152.159,644.666 159.5,644.5C 159.449,646.57 160.115,648.403 161.5,650C 157.462,656.547 152.462,662.381 146.5,667.5C 145.264,668.246 143.93,668.579 142.5,668.5C 142.5,669.833 142.5,671.167 142.5,672.5C 139.976,672.429 137.976,673.429 136.5,675.5C 135.151,678.675 133.484,681.675 131.5,684.5C 129.591,685.348 127.591,685.682 125.5,685.5C 121.699,678.718 120.033,671.384 120.5,663.5C 119.325,663.719 118.325,663.386 117.5,662.5C 112.462,655.705 110.129,648.038 110.5,639.5C 112.5,639.5 114.5,639.5 116.5,639.5C 116.5,640.833 116.5,642.167 116.5,643.5C 119.155,643.341 121.488,642.341 123.5,640.5C 127.518,637.479 131.184,634.146 134.5,630.5C 127.532,629.503 120.532,629.17 113.5,629.5C 113.5,632.167 113.5,634.833 113.5,637.5C 110.843,637.838 108.51,637.171 106.5,635.5C 103.406,629.886 101.739,623.886 101.5,617.5 Z M 130.5,651.5 C 135.214,651.173 139.88,651.507 144.5,652.5C 139.442,657.894 134.109,662.894 128.5,667.5C 126.807,664.988 124.474,663.488 121.5,663C 122.24,661.215 122.907,659.382 123.5,657.5C 125.929,655.388 128.262,653.388 130.5,651.5 Z"/></g>
<g><path style="opacity:0.608" fill="#4c5456" d="M 759.5,625.5 C 770.291,628.601 781.291,631.268 792.5,633.5C 796.416,635.043 800.249,636.709 804,638.5C 804.667,640.167 804.667,641.833 804,643.5C 801.254,650.662 797.754,657.328 793.5,663.5C 792.476,664.853 791.143,665.52 789.5,665.5C 789.808,667.924 789.474,670.257 788.5,672.5C 786.49,675.019 785.157,677.852 784.5,681C 777.954,689.708 771.621,698.541 765.5,707.5C 764.15,708.95 762.484,709.617 760.5,709.5C 760.775,714.73 758.275,717.73 753,718.5C 750.23,717.455 747.397,716.788 744.5,716.5C 745.235,711.662 746.902,707.162 749.5,703C 759.815,691.507 768.815,679.007 776.5,665.5C 778.407,662.605 781.074,661.272 784.5,661.5C 784.5,658.167 784.5,654.833 784.5,651.5C 785.5,651.5 786.5,651.5 787.5,651.5C 787.215,647.975 787.881,644.642 789.5,641.5C 788.885,639.884 787.885,638.551 786.5,637.5C 784.889,640.388 783.556,643.388 782.5,646.5C 774.043,647.039 770.376,643.039 771.5,634.5C 767.73,632.739 763.73,631.573 759.5,631C 758.248,629.172 758.248,627.339 759.5,625.5 Z"/></g>
<g><path style="opacity:0.576" fill="#4c5456" d="M 247.5,627.5 C 249.167,627.5 250.833,627.5 252.5,627.5C 254.196,631.488 256.196,635.488 258.5,639.5C 260.016,644.039 259.683,648.372 257.5,652.5C 260.552,654.187 263.719,655.52 267,656.5C 271.59,663.425 276.09,670.425 280.5,677.5C 283.768,681.703 287.268,685.703 291,689.5C 291.494,691.134 291.66,692.801 291.5,694.5C 290.5,694.5 289.5,694.5 288.5,694.5C 288.907,699.454 291.073,700.454 295,697.5C 299.222,697.982 301.055,700.315 300.5,704.5C 304.038,706.186 307.204,708.52 310,711.5C 311.08,714.237 310.246,715.904 307.5,716.5C 302.21,715.269 299.21,711.936 298.5,706.5C 294.445,706.824 290.445,706.491 286.5,705.5C 283.5,702.5 280.5,699.5 277.5,696.5C 270.224,685.383 262.724,674.383 255,663.5C 254.814,661.1 254.314,658.766 253.5,656.5C 251.866,656.032 250.7,655.032 250,653.5C 249.914,644.713 249.08,636.046 247.5,627.5 Z"/></g>
<g><path style="opacity:0.671" fill="#4c5456" d="M 197.5,636.5 C 203.833,636.5 210.167,636.5 216.5,636.5C 216.785,638.288 216.452,639.955 215.5,641.5C 212.544,643.496 209.544,645.496 206.5,647.5C 200.738,649.837 195.072,652.337 189.5,655C 183.124,656.865 176.791,658.698 170.5,660.5C 169.475,656.573 168.808,652.573 168.5,648.5C 178.386,644.775 188.053,640.775 197.5,636.5 Z"/></g>
<g><path style="opacity:0.646" fill="#4c5456" d="M 767.5,644.5 C 770.689,646.18 774.022,647.514 777.5,648.5C 777.5,651.167 777.5,653.833 777.5,656.5C 776.167,656.5 774.833,656.5 773.5,656.5C 768.649,668.716 762.483,680.383 755,691.5C 752.322,694.677 749.488,697.677 746.5,700.5C 744.955,701.452 743.288,701.785 741.5,701.5C 741.307,704.308 740.64,706.975 739.5,709.5C 736.421,709.74 733.421,709.407 730.5,708.5C 729.328,708.919 728.328,709.585 727.5,710.5C 730.303,715.578 729.636,720.245 725.5,724.5C 720.762,725.94 716.595,724.94 713,721.5C 712.333,719.833 712.333,718.167 713,716.5C 717.509,712.624 721.675,708.457 725.5,704C 726.793,703.51 728.127,703.343 729.5,703.5C 729.34,701.801 729.506,700.134 730,698.5C 744.687,681.987 757.187,663.987 767.5,644.5 Z"/></g>
<g><path style="opacity:0.662" fill="#4c5456" d="M 942.5,653.5 C 944.5,653.5 946.5,653.5 948.5,653.5C 950.473,658.358 950.807,663.358 949.5,668.5C 943.814,678.212 939.481,688.545 936.5,699.5C 937.034,702.915 937.867,706.249 939,709.5C 944.434,714.24 946.6,720.24 945.5,727.5C 943.712,727.785 942.045,727.452 940.5,726.5C 932.52,721.702 925.52,715.535 919.5,708C 920.5,706.5 921.5,705 922.5,703.5C 928.735,686.579 935.402,669.912 942.5,653.5 Z"/></g>
<g><path style="opacity:0.628" fill="#4c5456" d="M 242.5,658.5 C 245.37,658.248 247.703,659.248 249.5,661.5C 251.595,665.211 252.762,669.211 253,673.5C 262.533,682.383 270.7,692.383 277.5,703.5C 281.5,707.5 285.5,711.5 289.5,715.5C 290.452,717.045 290.785,718.712 290.5,720.5C 286.07,720.807 282.236,719.474 279,716.5C 278.51,717.793 278.343,719.127 278.5,720.5C 276.712,720.785 275.045,720.452 273.5,719.5C 259.942,705.031 248.442,689.031 239,671.5C 237.921,668.937 237.421,666.271 237.5,663.5C 239.167,663.5 240.833,663.5 242.5,663.5C 242.5,661.833 242.5,660.167 242.5,658.5 Z"/></g>
<g><path style="opacity:0.618" fill="#4c5456" d="M 1023.5,673.5 C 1023.5,675.5 1023.5,677.5 1023.5,679.5C 1015.62,699.106 1007.79,718.773 1000,738.5C 999.275,739.059 998.442,739.392 997.5,739.5C 989.181,738.028 980.848,736.695 972.5,735.5C 973.138,733.201 974.138,731.034 975.5,729C 979.142,728.086 982.808,727.252 986.5,726.5C 989.564,725.051 992.231,723.051 994.5,720.5C 996.985,714.935 999.651,709.435 1002.5,704C 1003.28,700.07 1004.28,696.237 1005.5,692.5C 1001.76,692.189 998.261,691.189 995,689.5C 987.658,682.678 979.991,676.344 972,670.5C 972.29,673.413 972.457,676.413 972.5,679.5C 970.396,679.799 968.396,679.466 966.5,678.5C 962.468,675.809 958.134,673.809 953.5,672.5C 952.571,671.311 952.238,669.978 952.5,668.5C 957.167,668.5 961.833,668.5 966.5,668.5C 966.5,666.833 966.5,665.167 966.5,663.5C 974.013,664.005 980.68,666.672 986.5,671.5C 989.447,672.321 992.447,672.821 995.5,673C 997.863,673.589 998.863,675.089 998.5,677.5C 1003.88,677.881 1009.21,678.547 1014.5,679.5C 1014.67,677.139 1015.01,674.806 1015.5,672.5C 1018.21,672.575 1020.87,672.908 1023.5,673.5 Z"/></g>
<g><path style="opacity:0.607" fill="#4c5456" d="M 792.5,672.5 C 795.271,672.421 797.937,672.921 800.5,674C 806.131,678.217 812.131,681.884 818.5,685C 821.054,687.398 821.054,689.731 818.5,692C 820.278,694.135 820.945,696.635 820.5,699.5C 816.514,698.511 812.514,697.511 808.5,696.5C 808.762,695.022 808.429,693.689 807.5,692.5C 801.497,691.581 796.33,688.914 792,684.5C 791.393,680.463 791.56,676.463 792.5,672.5 Z"/></g>
<g><path style="opacity:0.684" fill="#4c5456" d="M 107.5,673.5 C 112.295,676.025 114.961,680.025 115.5,685.5C 92.6929,695.072 70.0263,704.905 47.5,715C 38.6661,718.516 29.6661,721.349 20.5,723.5C 19.7279,719.548 19.3946,715.548 19.5,711.5C 25.4006,710.134 30.9006,707.8 36,704.5C 41.1799,703.96 46.3465,703.294 51.5,702.5C 53.1045,700.821 53.7711,698.821 53.5,696.5C 58.6779,695.001 63.8446,693.335 69,691.5C 82.2012,686.148 95.0346,680.148 107.5,673.5 Z"/></g>
<g><path style="opacity:0.591" fill="#4c5456" d="M 156.5,675.5 C 166.369,673.64 173.203,677.307 177,686.5C 177.499,690.821 177.666,695.154 177.5,699.5C 179.143,699.48 180.476,700.147 181.5,701.5C 182.833,702.5 182.833,703.5 181.5,704.5C 178.209,707.825 174.876,711.158 171.5,714.5C 169.604,715.466 167.604,715.799 165.5,715.5C 165.335,712.482 165.502,709.482 166,706.5C 173.604,694.057 170.437,686.057 156.5,682.5C 156.52,684.143 155.853,685.476 154.5,686.5C 156.045,687.452 157.712,687.785 159.5,687.5C 159.666,696.173 159.5,704.84 159,713.5C 158.085,715.918 156.585,717.918 154.5,719.5C 149.5,720.833 144.5,720.833 139.5,719.5C 137.757,717.679 136.257,715.679 135,713.5C 133.813,707.593 132.313,701.76 130.5,696C 132.577,688.171 137.577,684.838 145.5,686C 146.059,686.725 146.392,687.558 146.5,688.5C 143.679,692.892 142.012,697.725 141.5,703C 141.333,706.5 142.833,709 146,710.5C 147,709.167 148,707.833 149,706.5C 149.168,697.814 149.668,689.148 150.5,680.5C 152.952,679.212 154.952,677.546 156.5,675.5 Z"/></g>
<g><path style="opacity:0.419" fill="#4c5456" d="M 231.5,677.5 C 238.016,677.604 241.016,680.937 240.5,687.5C 237.552,687.777 234.719,687.444 232,686.5C 231.502,683.518 231.335,680.518 231.5,677.5 Z"/></g>
<g><path style="opacity:0.614" fill="#4c5456" d="M 221.5,682.5 C 223.833,682.5 226.167,682.5 228.5,682.5C 228.827,687.214 228.493,691.88 227.5,696.5C 221.135,700.547 214.802,704.547 208.5,708.5C 205.144,710.649 201.478,711.649 197.5,711.5C 196.423,708.773 195.423,705.94 194.5,703C 194.735,702.127 195.069,701.293 195.5,700.5C 202.93,695.549 210.597,690.883 218.5,686.5C 219.826,685.358 220.826,684.024 221.5,682.5 Z"/></g>
<g><path style="opacity:0.643" fill="#4c5456" d="M 972.5,682.5 C 974.467,682.261 976.301,682.594 978,683.5C 979.048,690.115 979.881,696.782 980.5,703.5C 982.991,705.058 985.657,706.058 988.5,706.5C 988.5,708.833 988.5,711.167 988.5,713.5C 984.445,713.824 980.445,713.491 976.5,712.5C 969.343,709.271 962.009,706.437 954.5,704C 950.301,701.143 949.634,697.643 952.5,693.5C 956.983,694.404 961.649,694.404 966.5,693.5C 970.323,690.856 972.323,687.189 972.5,682.5 Z"/></g>
<g><path style="opacity:0.381" fill="#4c5456" d="M 352.5,711.5 C 360.353,710.018 363.353,713.018 361.5,720.5C 359.061,722.027 357.061,724.027 355.5,726.5C 352.673,727.932 349.673,728.599 346.5,728.5C 346.412,723.855 348.745,721.355 353.5,721C 351.52,717.953 351.186,714.787 352.5,711.5 Z"/></g>
<g><path style="opacity:0.648" fill="#4c5456" d="M 763.5,713.5 C 766.126,714.422 768.793,715.422 771.5,716.5C 780.297,724.127 788.964,731.961 797.5,740C 804.678,742.875 805.344,746.875 799.5,752C 796.62,752.684 793.787,752.517 791,751.5C 780.892,743.397 771.058,734.897 761.5,726C 760.552,725.517 759.552,725.351 758.5,725.5C 759.621,721.26 761.288,717.26 763.5,713.5 Z"/></g>
<g><path style="opacity:0.641" fill="#4c5456" d="M 261.5,718.5 C 265.827,717.803 268.494,719.47 269.5,723.5C 272.68,723.176 273.847,724.51 273,727.5C 266.229,732.602 260.062,738.435 254.5,745C 253.062,745.219 251.729,745.719 250.5,746.5C 249.547,748.455 248.213,750.122 246.5,751.5C 243.637,752.409 241.303,754.076 239.5,756.5C 236.916,757.393 234.249,757.726 231.5,757.5C 227.976,747.185 231.642,741.352 242.5,740C 248.081,731.945 254.415,724.779 261.5,718.5 Z"/></g>
<g><path style="opacity:0.695" fill="#4c5456" d="M 732.5,720.5 C 735.518,720.335 738.518,720.502 741.5,721C 742.653,722.883 744.319,723.716 746.5,723.5C 745.56,729.131 742.56,733.464 737.5,736.5C 737.023,737.931 736.357,739.264 735.5,740.5C 728.7,746.461 721.7,752.128 714.5,757.5C 713.5,758.833 712.5,760.167 711.5,761.5C 702.204,768.03 692.871,774.363 683.5,780.5C 680.144,782.649 676.478,783.649 672.5,783.5C 671.537,779.204 671.371,774.871 672,770.5C 693.039,757.644 712.539,742.644 730.5,725.5C 731.562,723.978 732.229,722.312 732.5,720.5 Z"/></g>
<g><path style="opacity:0.642" fill="#4c5456" d="M 189.5,721.5 C 193.357,720.962 196.691,721.962 199.5,724.5C 202.012,731.271 206.012,736.937 211.5,741.5C 233.911,769.579 259.245,794.579 287.5,816.5C 292.246,820 297.246,823 302.5,825.5C 303.09,829.77 303.09,834.103 302.5,838.5C 298.917,838.092 295.583,836.925 292.5,835C 273.574,822.229 255.907,808.063 239.5,792.5C 227.192,778.69 214.692,765.024 202,751.5C 201.37,748.906 200.203,746.573 198.5,744.5C 197.516,741.572 197.183,738.572 197.5,735.5C 195.076,735.808 192.743,735.474 190.5,734.5C 187.223,730.271 186.89,725.937 189.5,721.5 Z"/></g>
<g><path style="opacity:0.444" fill="#4c5456" d="M 278.5,721.5 C 280.199,721.34 281.866,721.506 283.5,722C 285.457,723.985 287.79,725.485 290.5,726.5C 292.98,728.304 294.647,730.637 295.5,733.5C 296.5,733.5 297.5,733.5 298.5,733.5C 298.5,732.5 298.5,731.5 298.5,730.5C 301.466,730.11 304.132,730.777 306.5,732.5C 306.833,733.667 307.167,734.833 307.5,736C 305.99,740.382 305.323,744.882 305.5,749.5C 297.65,746.32 291.65,740.987 287.5,733.5C 284.633,730.255 281.3,727.588 277.5,725.5C 277.167,725 276.833,724.5 276.5,724C 277.056,722.989 277.722,722.156 278.5,721.5 Z"/></g>
<g><path style="opacity:0.69" fill="#4c5456" d="M 691.5,747.5 C 691.629,751.009 690.296,753.842 687.5,756C 681.2,760.465 674.534,764.299 667.5,767.5C 664.553,768.321 661.553,768.821 658.5,769C 658.833,769.333 659.167,769.667 659.5,770C 658.284,771.594 656.951,773.094 655.5,774.5C 618.987,795.11 579.654,806.443 537.5,808.5C 520.833,809.833 504.167,809.833 487.5,808.5C 476.153,807.163 464.82,805.829 453.5,804.5C 453.627,801.755 452.46,799.755 450,798.5C 448.921,795.937 448.421,793.271 448.5,790.5C 458.246,791.969 467.913,793.469 477.5,795C 500.322,797.903 523.155,798.07 546,795.5C 549.364,795.595 552.531,796.262 555.5,797.5C 556.429,796.311 556.762,794.978 556.5,793.5C 567.384,791.86 578.218,789.86 589,787.5C 618.047,778.559 645.547,766.225 671.5,750.5C 675.97,745.222 681.637,741.722 688.5,740C 692.108,735.074 696.108,730.574 700.5,726.5C 705.076,724.917 709.242,725.583 713,728.5C 714.356,727.62 715.856,727.286 717.5,727.5C 714.143,736.176 707.81,741.843 698.5,744.5C 698.5,745.5 698.5,746.5 698.5,747.5C 696.167,747.5 693.833,747.5 691.5,747.5 Z M 691.5,747.5 C 691.631,746.624 691.298,745.957 690.5,745.5C 689.33,746.694 689.663,747.361 691.5,747.5 Z"/></g>
<g><path style="opacity:0.618" fill="#4c5456" d="M 322.5,727.5 C 323.873,727.343 325.207,727.51 326.5,728C 331.628,731.297 336.294,735.13 340.5,739.5C 341.656,738.424 341.489,737.424 340,736.5C 337.963,730.813 339.796,728.146 345.5,728.5C 345.343,729.873 345.51,731.207 346,732.5C 348.804,730.656 351.97,729.989 355.5,730.5C 355.785,732.288 355.452,733.955 354.5,735.5C 351.538,736.951 348.705,738.618 346,740.5C 345.508,741.549 345.674,742.549 346.5,743.5C 355.734,749.155 365.067,754.821 374.5,760.5C 375.348,762.409 375.682,764.409 375.5,766.5C 376.833,766.5 378.167,766.5 379.5,766.5C 379.072,769.564 378.406,772.564 377.5,775.5C 375.473,775.662 373.473,775.495 371.5,775C 370.663,773.989 370.33,772.822 370.5,771.5C 363.777,770.093 357.611,767.427 352,763.5C 340.755,755.589 329.589,747.589 318.5,739.5C 317.167,737.167 317.167,734.833 318.5,732.5C 320.237,731.103 321.571,729.436 322.5,727.5 Z"/></g>
<g><path style="opacity:0.588" fill="#4c5456" d="M 822.5,732.5 C 826.131,732.16 829.464,732.994 832.5,735C 833.692,736.945 833.692,738.945 832.5,741C 827.309,749.533 820.975,757.199 813.5,764C 810.632,765.383 807.632,766.216 804.5,766.5C 804.915,768.747 805.582,770.914 806.5,773C 805.068,775.276 803.401,777.442 801.5,779.5C 796.058,780.728 793.724,778.395 794.5,772.5C 793.708,766.964 796.041,764.297 801.5,764.5C 801.566,761.336 802.566,758.502 804.5,756C 811.481,748.861 817.481,741.027 822.5,732.5 Z"/></g>
<g><path style="opacity:0.65" fill="#4c5456" d="M 374.5,847.5 C 376.121,847.213 377.121,846.213 377.5,844.5C 379.743,843.526 382.076,843.192 384.5,843.5C 384.824,847.555 384.491,851.555 383.5,855.5C 381.864,859.768 379.864,863.768 377.5,867.5C 380.898,867.18 384.232,867.513 387.5,868.5C 407.521,876.113 428.188,881.779 449.5,885.5C 451.312,888.899 451.979,892.566 451.5,896.5C 446.816,896.461 442.149,896.128 437.5,895.5C 419.209,891.629 401.209,886.796 383.5,881C 379.693,878.045 375.359,876.545 370.5,876.5C 368.826,883.353 365.493,889.353 360.5,894.5C 388.482,904.898 417.149,912.898 446.5,918.5C 448.503,922.152 450.836,925.485 453.5,928.5C 453.392,929.442 453.059,930.275 452.5,931C 449.5,931.667 446.5,931.667 443.5,931C 427.096,927.079 410.596,923.245 394,919.5C 388.213,917.846 382.546,915.846 377,913.5C 373.875,912.744 370.709,912.411 367.5,912.5C 367.5,911.167 367.5,909.833 367.5,908.5C 342.194,902.131 318.861,891.631 297.5,877C 292.166,874.162 286.833,871.662 281.5,869.5C 281.5,867.833 281.5,866.167 281.5,864.5C 279.473,864.662 277.473,864.495 275.5,864C 267.823,857.832 259.823,852.166 251.5,847C 214.942,819.259 184.276,785.759 159.5,746.5C 157.277,743.017 155.61,739.35 154.5,735.5C 157.725,735.589 160.725,734.923 163.5,733.5C 164.894,733.621 166.228,733.954 167.5,734.5C 174.025,744.147 180.358,753.814 186.5,763.5C 195.834,775.029 205.501,786.363 215.5,797.5C 225.127,805.126 234.127,813.46 242.5,822.5C 277.543,851.833 316.21,875.5 358.5,893.5C 357.856,886.766 358.523,879.933 360.5,873C 360.241,871.739 359.574,870.739 358.5,870C 353.384,868.453 348.384,866.62 343.5,864.5C 333.135,859.112 322.802,853.779 312.5,848.5C 312.5,847.5 312.5,846.5 312.5,845.5C 306.588,846.656 303.588,844.323 303.5,838.5C 305.5,838.5 307.5,838.5 309.5,838.5C 309.5,836.833 309.5,835.167 309.5,833.5C 311.288,833.215 312.955,833.548 314.5,834.5C 330.089,844.161 346.422,852.494 363.5,859.5C 367.621,845.459 371.788,831.459 376,817.5C 377.162,811.383 378.162,805.383 379,799.5C 371.151,794.768 362.985,790.602 354.5,787C 347.339,782.329 340.339,777.496 333.5,772.5C 330.674,770.649 327.674,769.316 324.5,768.5C 324.27,765.306 324.936,762.306 326.5,759.5C 324.073,757.837 322.573,755.504 322,752.5C 320.951,754.107 319.451,754.773 317.5,754.5C 317.5,755.5 317.5,756.5 317.5,757.5C 308.586,757.792 306.086,754.125 310,746.5C 310.495,744.527 310.662,742.527 310.5,740.5C 315.157,741.293 318.99,743.626 322,747.5C 322.49,748.793 322.657,750.127 322.5,751.5C 324.401,751.433 326.234,751.767 328,752.5C 345.778,764.55 364.111,775.55 383,785.5C 385.176,784.484 386.343,782.818 386.5,780.5C 387.5,780.5 388.5,780.5 389.5,780.5C 386.783,800.338 382.116,819.671 375.5,838.5C 374.838,841.468 374.505,844.468 374.5,847.5 Z M 374.5,847.5 C 374.719,848.675 374.386,849.675 373.5,850.5C 372.202,848.948 372.535,847.948 374.5,847.5 Z M 365.5,903.5 C 367.337,903.639 367.67,904.306 366.5,905.5C 365.702,905.043 365.369,904.376 365.5,903.5 Z"/></g>
<g><path style="opacity:0.639" fill="#4c5456" d="M 727.5,751.5 C 728.873,751.343 730.207,751.51 731.5,752C 736.29,755.953 740.957,760.119 745.5,764.5C 750.849,770.857 755.849,777.524 760.5,784.5C 761.983,787.411 761.65,790.078 759.5,792.5C 756.242,793.417 752.909,793.751 749.5,793.5C 748.248,790.209 746.915,786.876 745.5,783.5C 744.12,782.024 742.453,781.024 740.5,780.5C 734.87,775.228 729.704,769.561 725,763.5C 723.773,758.938 724.607,754.938 727.5,751.5 Z"/></g>
<g><path style="opacity:0.628" fill="#4c5456" d="M 297.5,756.5 C 300.85,756.335 304.183,756.502 307.5,757C 309.325,758.466 309.825,760.299 309,762.5C 306.918,765.874 304.751,769.207 302.5,772.5C 298.203,778.465 293.203,783.798 287.5,788.5C 287.082,792.697 284.748,794.531 280.5,794C 282.439,798.559 281.106,800.059 276.5,798.5C 274.198,797.198 272.198,795.532 270.5,793.5C 268.879,789.558 270.212,787.558 274.5,787.5C 274.946,783.196 276.946,779.696 280.5,777C 281.872,776.598 283.205,776.098 284.5,775.5C 286.028,770.711 288.361,766.378 291.5,762.5C 293.548,760.452 295.548,758.452 297.5,756.5 Z"/></g>
<g><path style="opacity:0.751" fill="#4c5456" d="M 866.5,766.5 C 877.445,764.351 883.778,768.684 885.5,779.5C 884.625,783.854 882.959,787.854 880.5,791.5C 867.415,796.933 859.748,792.766 857.5,779C 858.082,776.335 859.082,773.835 860.5,771.5C 862.672,769.828 864.672,768.161 866.5,766.5 Z"/></g>
<g><path style="opacity:0.738" fill="#4c5456" d="M 154.5,771.5 C 160.14,770.995 165.473,771.995 170.5,774.5C 175.433,784.076 173.767,792.243 165.5,799C 149.77,799.934 143.937,792.768 148,777.5C 150.399,775.595 152.566,773.595 154.5,771.5 Z"/></g>
<g><path style="opacity:0.685" fill="#4c5456" d="M 657.5,778.5 C 665.452,778.486 669.452,782.486 669.5,790.5C 658.899,793.633 648.899,798.133 639.5,804C 627.143,807.643 614.976,811.81 603,816.5C 580.819,822.353 558.319,826.353 535.5,828.5C 535.762,827.022 535.429,825.689 534.5,824.5C 531.944,823.949 529.611,822.949 527.5,821.5C 527.167,822 526.833,822.5 526.5,823C 527.885,824.597 528.551,826.43 528.5,828.5C 514.151,828.833 499.818,828.499 485.5,827.5C 480.875,826.552 476.375,825.219 472,823.5C 467.662,821.08 465.496,817.413 465.5,812.5C 468.073,812.148 470.406,812.648 472.5,814C 486.179,814.167 499.846,814.667 513.5,815.5C 515.813,816.273 518.146,816.94 520.5,817.5C 534.537,814.709 548.704,812.709 563,811.5C 573.654,809.095 584.321,806.762 595,804.5C 604.733,801.084 614.566,797.918 624.5,795C 635.969,789.93 646.969,784.43 657.5,778.5 Z M 619.5,800.5 C 621.958,800.227 623.625,801.227 624.5,803.5C 622.955,804.452 621.288,804.785 619.5,804.5C 619.5,803.167 619.5,801.833 619.5,800.5 Z"/></g>
<g><path style="opacity:0.695" fill="#4c5456" d="M 401.5,780.5 C 402.873,780.343 404.207,780.51 405.5,781C 407.5,783.333 409.5,785.667 411.5,788C 413.169,789.669 415.169,790.502 417.5,790.5C 417.437,793.657 416.437,796.491 414.5,799C 416.473,799.495 418.473,799.662 420.5,799.5C 420.5,801.167 420.5,802.833 420.5,804.5C 422.833,804.5 425.167,804.5 427.5,804.5C 427.657,806.818 428.824,808.484 431,809.5C 432.923,807.075 435.423,805.742 438.5,805.5C 442.734,806.886 447.068,807.553 451.5,807.5C 451.5,809.833 451.5,812.167 451.5,814.5C 457.323,814.582 459.656,817.582 458.5,823.5C 441.104,819.74 423.77,815.74 406.5,811.5C 406.481,813.06 406.148,814.56 405.5,816C 400.511,823.787 396.177,831.954 392.5,840.5C 387.814,842.411 384.314,841.077 382,836.5C 381.319,830.235 382.319,824.235 385,818.5C 388.801,808.055 393.635,798.055 399.5,788.5C 400.26,785.813 400.927,783.147 401.5,780.5 Z"/></g>
<g><path style="opacity:0.626" fill="#4c5456" d="M 780.5,780.5 C 782.167,780.5 783.833,780.5 785.5,780.5C 786.568,783.088 787.901,785.588 789.5,788C 784.669,797.077 777.669,803.91 768.5,808.5C 758.836,818.997 747.836,827.83 735.5,835C 732.937,836.079 730.271,836.579 727.5,836.5C 726.688,834.257 726.021,831.924 725.5,829.5C 725.667,828.167 725.833,826.833 726,825.5C 736.963,819.194 747.129,811.86 756.5,803.5C 758.045,802.548 759.712,802.215 761.5,802.5C 761.281,801.325 761.614,800.325 762.5,799.5C 768.887,793.449 774.887,787.115 780.5,780.5 Z"/></g>
<g><path style="opacity:0.656" fill="#4c5456" d="M 684.5,783.5 C 690.213,783.201 694.546,785.535 697.5,790.5C 703.334,801.37 710.001,811.536 717.5,821C 716.144,822.567 715.477,824.4 715.5,826.5C 711.747,828.139 707.747,828.806 703.5,828.5C 703.058,825.657 702.058,822.991 700.5,820.5C 695.749,812.663 690.749,804.996 685.5,797.5C 683.767,793.588 682.434,789.588 681.5,785.5C 683.179,785.715 684.179,785.048 684.5,783.5 Z"/></g>
<g><path style="opacity:0.615" fill="#4c5456" d="M 339.5,785.5 C 343.654,785.942 347.654,786.942 351.5,788.5C 351.66,790.199 351.494,791.866 351,793.5C 346.638,800.872 342.304,808.205 338,815.5C 336.181,817.503 334.015,818.836 331.5,819.5C 331.68,823.682 331.013,827.682 329.5,831.5C 325.522,831.649 321.856,830.649 318.5,828.5C 318.167,827.333 317.833,826.167 317.5,825C 320.113,819.91 322.447,814.743 324.5,809.5C 325.5,809.5 326.5,809.5 327.5,809.5C 328.031,806.763 328.864,804.096 330,801.5C 332.361,798.372 334.861,795.372 337.5,792.5C 338.635,790.293 339.301,787.96 339.5,785.5 Z"/></g>
<g><path style="opacity:0.67" fill="#4c5456" d="M 638.5,807.5 C 641.833,807.5 645.167,807.5 648.5,807.5C 653.814,821.47 659.148,835.47 664.5,849.5C 664.167,850.5 663.833,851.5 663.5,852.5C 660.042,854.32 656.375,855.32 652.5,855.5C 650.934,850.303 649.268,845.136 647.5,840C 642.764,831.63 639.097,822.796 636.5,813.5C 636.87,811.333 637.537,809.333 638.5,807.5 Z"/></g>
<g><path style="opacity:0.613" fill="#4c5456" d="M 592.5,823.5 C 594.5,823.5 596.5,823.5 598.5,823.5C 599.769,830.027 601.603,836.36 604,842.5C 604.498,845.817 604.665,849.15 604.5,852.5C 594.754,849.389 588.921,842.722 587,832.5C 586.333,830.167 586.333,827.833 587,825.5C 588.948,824.891 590.782,824.224 592.5,823.5 Z"/></g>
<g><path style="opacity:0.679" fill="#4c5456" d="M 434.5,824.5 C 437.898,824.18 441.232,824.513 444.5,825.5C 446.429,828.225 446.929,831.225 446,834.5C 443.07,847.613 439.737,860.613 436,873.5C 434.938,874.097 433.772,874.43 432.5,874.5C 429.933,873.336 427.266,872.67 424.5,872.5C 427.346,856.246 430.679,840.246 434.5,824.5 Z"/></g>
<g><path style="opacity:0.627" fill="#4c5456" d="M 540.5,831.5 C 543.5,831.5 546.5,831.5 549.5,831.5C 549.666,835.846 549.499,840.179 549,844.5C 547.795,845.071 546.628,845.738 545.5,846.5C 547.26,849.212 547.927,852.212 547.5,855.5C 548.5,855.5 549.5,855.5 550.5,855.5C 550.5,864.167 550.5,872.833 550.5,881.5C 547.167,882.167 543.833,882.833 540.5,883.5C 538.31,866.885 536.644,850.218 535.5,833.5C 537.781,833.923 539.448,833.256 540.5,831.5 Z"/></g>
<g><path style="opacity:0.647" fill="#4c5456" d="M 484.5,833.5 C 488.5,833.5 492.5,833.5 496.5,833.5C 497.096,849.712 496.096,865.712 493.5,881.5C 492.389,882.611 491.055,883.278 489.5,883.5C 487.354,882.106 485.021,881.44 482.5,881.5C 482.5,879.833 482.5,878.167 482.5,876.5C 485.247,876.813 487.914,876.48 490.5,875.5C 488.937,872.107 486.271,870.774 482.5,871.5C 483.881,858.881 484.547,846.214 484.5,833.5 Z"/></g>
<g><path style="opacity:0.55" fill="#4c5456" d="M 674.5,859.5 C 674.5,856.5 674.5,853.5 674.5,850.5C 679.91,848.32 685.576,847.32 691.5,847.5C 691.5,846.167 691.5,844.833 691.5,843.5C 698.355,844.202 703.522,847.536 707,853.5C 708.128,855.345 708.628,857.345 708.5,859.5C 704.486,859.666 700.486,859.499 696.5,859C 693.031,857.708 689.531,856.541 686,855.5C 682.332,857.398 678.499,858.731 674.5,859.5 Z"/></g>
<g><path style="opacity:0.754" fill="#4c5456" d="M 782.5,850.5 C 787.544,850.173 792.544,850.506 797.5,851.5C 804.166,856.281 806,862.614 803,870.5C 799.108,873.65 795.108,876.65 791,879.5C 785.319,877.601 780.319,874.601 776,870.5C 775.172,866.129 775.339,861.795 776.5,857.5C 777.886,854.461 779.886,852.127 782.5,850.5 Z"/></g>
<g><path style="opacity:0.762" fill="#4c5456" d="M 239.5,853.5 C 254.75,852.456 260.417,859.456 256.5,874.5C 248.755,883.006 240.255,883.673 231,876.5C 230.333,870.833 230.333,865.167 231,859.5C 231.645,858.354 232.478,857.354 233.5,856.5C 235.884,855.989 237.884,854.989 239.5,853.5 Z"/></g>
<g><path style="opacity:0.559" fill="#4c5456" d="M 595.5,857.5 C 600.036,857.272 604.036,858.605 607.5,861.5C 609.289,864.556 609.956,867.889 609.5,871.5C 605.534,872.162 601.534,872.495 597.5,872.5C 596.189,867.606 595.523,862.606 595.5,857.5 Z"/></g>
<g><path style="opacity:0.615" fill="#4c5456" d="M 674.5,859.5 C 675.167,861.5 675.833,863.5 676.5,865.5C 686.839,865.334 697.172,865.5 707.5,866C 712.885,867.442 714.885,870.942 713.5,876.5C 714.653,885.679 710.653,890.012 701.5,889.5C 701.215,885.975 701.881,882.642 703.5,879.5C 703.182,878.353 702.516,877.519 701.5,877C 691.839,876.5 682.172,876.334 672.5,876.5C 672.5,875.167 672.5,873.833 672.5,872.5C 671.5,872.5 670.5,872.5 669.5,872.5C 668.632,870.103 667.965,867.603 667.5,865C 667.965,862.397 668.632,859.897 669.5,857.5C 671.322,857.831 672.989,858.498 674.5,859.5 Z"/></g>
<g><path style="opacity:0.588" fill="#4c5456" d="M 645.5,869.5 C 645.5,868.167 645.5,866.833 645.5,865.5C 656.438,864.353 664.272,868.686 669,878.5C 669.301,881.974 670.134,885.308 671.5,888.5C 669.938,891.974 669.105,895.64 669,899.5C 663.06,911.545 653.56,915.545 640.5,911.5C 637.5,909.167 634.833,906.5 632.5,903.5C 631.167,901.833 631.167,900.167 632.5,898.5C 639.284,892.941 646.951,889.274 655.5,887.5C 657.555,886.813 659.221,885.646 660.5,884C 655.113,881.815 652.447,877.815 652.5,872C 649.969,871.552 647.636,870.719 645.5,869.5 Z M 655.5,895.5 C 657.199,895.34 658.866,895.506 660.5,896C 659.62,897.356 659.286,898.856 659.5,900.5C 656.395,900.782 653.562,901.782 651,903.5C 648.968,903.142 647.134,902.308 645.5,901C 649.056,899.392 652.389,897.559 655.5,895.5 Z"/></g>
<g><path style="opacity:0.475" fill="#4c5456" d="M 645.5,869.5 C 645.719,870.675 645.386,871.675 644.5,872.5C 641.151,875.171 637.818,877.838 634.5,880.5C 632.942,882.991 631.942,885.657 631.5,888.5C 629.857,888.52 628.524,887.853 627.5,886.5C 624.517,876.177 628.184,869.844 638.5,867.5C 641.012,867.797 643.345,868.463 645.5,869.5 Z"/></g>
<g><path style="opacity:0.519" fill="#4c5456" d="M 681.5,878.5 C 685.038,879.691 688.371,881.358 691.5,883.5C 694.468,884.162 697.468,884.495 700.5,884.5C 700.762,885.978 700.429,887.311 699.5,888.5C 695.614,890.296 692.114,892.629 689,895.5C 680.408,892.247 677.908,886.581 681.5,878.5 Z"/></g>
<g><path style="opacity:0.714" fill="#4c5456" d="M 576.5,884.5 C 581.875,884.172 587.208,884.505 592.5,885.5C 593.417,888.758 593.751,892.091 593.5,895.5C 578.856,897.44 564.189,899.274 549.5,901C 526.5,901.667 503.5,901.667 480.5,901C 475.339,900.807 470.339,899.973 465.5,898.5C 464.645,894.204 466.311,891.537 470.5,890.5C 474.667,890.167 478.833,889.833 483,889.5C 493.336,890.916 503.836,891.583 514.5,891.5C 522.683,891.723 530.683,891.056 538.5,889.5C 542.4,889.396 545.733,890.729 548.5,893.5C 551.401,891.838 554.401,890.338 557.5,889C 562.864,888.829 568.198,888.329 573.5,887.5C 574.993,886.859 575.993,885.859 576.5,884.5 Z"/></g>
<g><path style="opacity:0.727" fill="#4c5456" d="M 599.5,913.5 C 601.722,913.178 603.556,913.845 605,915.5C 606.557,918.666 607.39,922 607.5,925.5C 577.171,932.305 546.338,936.305 515,937.5C 506.506,938.537 499.172,936.204 493,930.5C 492.505,928.527 492.338,926.527 492.5,924.5C 520.923,924.382 549.256,922.716 577.5,919.5C 584.573,918.317 591.573,916.817 598.5,915C 599.056,914.617 599.389,914.117 599.5,913.5 Z"/></g>
<g><path style="opacity:0.655" fill="#4c5456" d="M 681.5,919.5 C 686.507,919.751 691.507,920.084 696.5,920.5C 697.999,925.678 699.665,930.845 701.5,936C 709.47,953.564 717.136,971.23 724.5,989C 726.629,993.583 727.629,998.416 727.5,1003.5C 723.548,1004.27 719.548,1004.61 715.5,1004.5C 710.664,988.577 704.33,973.244 696.5,958.5C 696.443,952.234 694.276,946.901 690,942.5C 688.71,938.27 688.21,933.936 688.5,929.5C 687.022,929.762 685.689,929.429 684.5,928.5C 683.602,925.427 682.602,922.427 681.5,919.5 Z"/></g>
<g><path style="opacity:0.697" fill="#4c5456" d="M 339.5,1012.5 C 332.833,1012.5 326.167,1012.5 319.5,1012.5C 309.13,1011.14 301.464,1005.81 296.5,996.5C 293.042,998.32 289.375,999.32 285.5,999.5C 286.427,987.997 288.761,976.83 292.5,966C 295.13,965.155 297.464,965.655 299.5,967.5C 300.142,973.531 301.475,979.364 303.5,985C 306.363,993.082 311.697,998.915 319.5,1002.5C 324.167,1003.83 328.833,1003.83 333.5,1002.5C 339.123,999.299 340.79,994.632 338.5,988.5C 336.836,985.983 335.336,983.317 334,980.5C 328.175,975.682 322.008,971.516 315.5,968C 310.7,963.526 306.867,958.36 304,952.5C 302.988,946.65 303.488,940.984 305.5,935.5C 306.689,934.571 308.022,934.238 309.5,934.5C 309.429,931.976 310.429,929.976 312.5,928.5C 325.744,923.609 338.411,924.775 350.5,932C 352.667,934.833 355.167,937.333 358,939.5C 362.868,936.215 366.035,937.381 367.5,943C 365.746,951.446 364.413,959.946 363.5,968.5C 361.5,968.5 359.5,968.5 357.5,968.5C 354.343,962.494 351.676,956.161 349.5,949.5C 342.037,937.29 331.371,933.29 317.5,937.5C 317.183,940.572 317.516,943.572 318.5,946.5C 320.226,948.228 321.559,950.228 322.5,952.5C 329.245,957.855 335.912,963.188 342.5,968.5C 347.208,972.543 351.208,977.209 354.5,982.5C 356.739,991.859 355.072,1000.36 349.5,1008C 346.441,1010.18 343.108,1011.68 339.5,1012.5 Z"/></g>
<g><path style="opacity:0.709" fill="#4c5456" d="M 451.5,941.5 C 457.671,942.456 462.671,945.456 466.5,950.5C 468.396,951.466 470.396,951.799 472.5,951.5C 472.863,963.967 466.863,969.133 454.5,967C 449.179,963.515 445.846,958.682 444.5,952.5C 444.938,949.624 445.938,946.957 447.5,944.5C 449.483,944.185 450.816,943.185 451.5,941.5 Z"/></g>
<g><path style="opacity:0.668" fill="#4c5456" d="M 566.5,941.5 C 572.579,942.313 576.579,945.647 578.5,951.5C 581.602,953.596 584.936,955.262 588.5,956.5C 588.059,963.775 584.226,967.442 577,967.5C 564.289,965.43 559.623,958.096 563,945.5C 564.627,944.468 565.793,943.134 566.5,941.5 Z"/></g>
</svg>
